<?xml version="1.0" encoding="utf-8"?>
<!-- Generator: Adobe Illustrator 23.0.1, SVG Export Plug-In . SVG Version: 6.00 Build 0)  -->
<svg version="1.1" id="Layer_1" xmlns="http://www.w3.org/2000/svg" xmlns:xlink="http://www.w3.org/1999/xlink" x="0px" y="0px"
	 viewBox="0 0 24 24" style="enable-background:new 0 0 24 24;" xml:space="preserve">
<style type="text/css">
	.st0{fill:#ffe5c4;} 
</style>
<path class="st0" d="M19.64,2.18h-4.57C14.62,0.91,13.42,0,12,0S9.38,0.91,8.93,2.18H4.36c-1.21,0-2.18,0.97-2.18,2.18v17.46
	c0,1.21,0.97,2.18,2.18,2.18h15.28c1.21,0,2.18-0.97,2.18-2.18V4.36C21.82,3.15,20.85,2.18,19.64,2.18z M12,2.18
	c0.6,0,1.09,0.49,1.09,1.09S12.6,4.36,12,4.36s-1.09-0.49-1.09-1.09S11.4,2.18,12,2.18z M19.64,21.82H4.36V4.36h2.18v3.27h10.91
	V4.36h2.18v17.46H19.64z M16.97,13.77l-3.03,3.03c-0.84,0.84-2.19,0.84-3.03,0l-1.01-1.01l1.01-1.01l1.01,1.01
	c0.28,0.28,0.73,0.28,1.01,0l3.03-3.03c0.28-0.28,0.28-0.73,0-1.02l-1.01-1.01c-0.28-0.28-0.73-0.28-1.01,0l-1.08,1.08
	c-0.5-0.3-1.07-0.42-1.64-0.38l1.7-1.7c0.84-0.84,2.19-0.84,3.03,0l1.01,1.01C17.81,11.58,17.81,12.93,16.97,13.77z M10.97,17.74
	l-1.08,1.08c-0.28,0.28-0.73,0.28-1.01,0l-1.02-1.01c-0.28-0.28-0.28-0.73,0-1.01l3.03-3.03c0.28-0.28,0.73-0.28,1.01,0l1.01,1.01
	l1.01-1.01l-1.01-1.01c-0.84-0.84-2.19-0.84-3.03,0L6.86,15.8c-0.84,0.84-0.84,2.19,0,3.03l1.02,1.01c0.84,0.84,2.19,0.84,3.03,0
	l1.7-1.7C12.05,18.16,11.48,18.03,10.97,17.74z"/>
</svg>
