<svg xmlns="http://www.w3.org/2000/svg" viewBox="0 0 24 24">
  <path d="M23.17 20.2l-1.45-5.08-7.19 6.04h7.92c.24 0 .46-.11.6-.3a.78.78 0 0 0 .12-.66zM4.48 15.87l-2.29-.42L.83 20.2c-.06.23-.02.47.12.66.14.19.36.3.6.3h2.93v-5.29zm1.06.19v5.09h7.35l3.66-3.07-11.01-2.02zm3.35-.45l-6.42-1.18.68-2.37a.76.76 0 0 1 .72-.55h7.14l-2.12 4.1zm12.52-1.56L17.6 17.2l-7.49-1.37 2.24-4.31h7.78c.34 0 .63.22.72.55l.56 1.98zM3.15 2.85h2.74c.94 0 1.64.14 2.1.41.46.26.69.75.69 1.44 0 .77-.28 1.3-.84 1.6-.52.26-1.25.4-2.19.4h-.08v2.5h1.17v.18H3.15V9.2h.61V3.02h-.61v-.17zm2.42.17v3.5h.2c.37 0 .63-.13.77-.38.15-.26.22-.67.22-1.24v-.45c0-.53-.07-.9-.2-1.11-.14-.21-.38-.32-.74-.32h-.25zm7.13 4.67l1.62-4.66h-.73v-.18h1.43v.18h-.44l-2.25 6.45h-.78L9.17 3.02h-.43v-.17h3.05v.18h-.66l1.57 4.66zm2.57-4.84h4.85l.09 1.85h-.17c-.26-.63-.54-1.06-.82-1.29-.29-.23-.71-.35-1.26-.35h-.33v2.88h.32c.29 0 .54-.11.74-.33.2-.22.34-.52.42-.89h.14v2.76h-.15c-.11-.47-.26-.8-.45-1-.19-.2-.45-.3-.78-.3h-.22v2.99H18c.57 0 1.06-.17 1.46-.51.4-.34.68-.78.83-1.32h.19l-.08 2.04h-5.12v-.21h.55V3.05h-.55v-.2z" />
</svg>