<svg xmlns="http://www.w3.org/2000/svg" viewBox="0 0 192 192">
  <defs>
    <style>
      .cls-1 {
        fill: silver;
      }

      .cls-2 {
        fill: #d63838;
      }
    </style>
  </defs>
  <title>Web Island Frame Saborian_T</title>
  <g id="Web_Saborian" data-name="Web Saborian">
    <path class="cls-1" d="M128,54.62738,201.37262,128,128,201.37262,54.62738,128,128,54.62738M128,32,32,128l96,96,96-96L128,32Z" transform="translate(-32 -32)"/>
  </g>
  <g id="Turrets">
    <g>
      <rect class="cls-2" x="191.3544" y="116.75003" width="22.50019" height="22.50019" transform="translate(-63.16908 148.74979) rotate(-44.99912)"/>
      <path class="cls-1" d="M202.60431,117.39339,213.21091,128l-10.6066,10.6066L191.99771,128l10.6066-10.60661m0-10.60661-5.3033,5.30331-10.6066,10.60661L181.3911,128l5.30331,5.3033,10.6066,10.6066,5.3033,5.30331,5.3033-5.30331,10.6066-10.6066L223.81752,128l-5.30331-5.30329-10.6066-10.60661-5.3033-5.30331Z" transform="translate(-32 -32)"/>
    </g>
    <g>
      <rect class="cls-2" x="42.14562" y="116.75012" width="22.50001" height="22.50001" transform="translate(-106.87054 43.24678) rotate(-45)"/>
      <path class="cls-1" d="M53.39569,117.39339,64.0023,128l-10.6066,10.6066L42.78909,128l10.60661-10.60661m0-10.60661L48.0924,112.0901,37.4858,122.69671,32.18249,128l5.30331,5.3033L48.0924,143.9099l5.30329,5.30331L58.699,143.9099l10.6066-10.6066L74.6089,128l-5.30331-5.30329L58.699,112.0901l-5.30329-5.30331Z" transform="translate(-32 -32)"/>
    </g>
  </g>
</svg>
