<svg xmlns="http://www.w3.org/2000/svg" viewBox="0 0 24 24">
  <path d="M23.17 20.2l-1.45-5.08-7.19 6.04h7.92c.24 0 .46-.11.6-.3a.78.78 0 0 0 .12-.66zM4.48 15.87l-2.29-.42L.83 20.2c-.06.23-.02.47.12.66.14.19.36.3.6.3h2.93v-5.29zm1.06.19v5.09h7.35l3.66-3.07-11.01-2.02zm3.35-.45l-6.42-1.18.68-2.37a.76.76 0 0 1 .72-.55h7.14l-2.12 4.1zm12.52-1.56L17.6 17.2l-7.49-1.37 2.24-4.31h7.78c.34 0 .63.22.72.55l.56 1.98zM3.36 3.03h2.69c.92 0 1.61.13 2.06.4.45.27.68.74.68 1.42 0 .76-.27 1.28-.82 1.56-.51.27-1.23.4-2.15.4h-.08v2.45h1.14v.17H3.36v-.17h.6V3.2h-.6v-.17zm2.38.17v3.43h.19c.37 0 .62-.12.76-.38.15-.24.22-.65.22-1.21V4.6c0-.52-.07-.88-.2-1.09s-.37-.31-.72-.31h-.25zm7 4.58l1.59-4.58h-.71v-.17h1.4v.17h-.43l-2.21 6.33h-.77L9.28 3.2h-.42v-.17h2.99v.17h-.65l1.54 4.58zm2.47-4.75h2.69c.92 0 1.61.13 2.06.4.45.27.68.74.68 1.42 0 .76-.27 1.28-.82 1.56-.51.26-1.23.39-2.15.39h-.07v2.45h1.14v.17h-3.52v-.16h.59V3.2h-.59v-.17zm2.38.17v3.43h.19c.37 0 .62-.12.76-.38.14-.25.21-.66.21-1.22V4.6c0-.52-.07-.88-.2-1.09-.13-.21-.37-.31-.72-.31h-.24z"/>
</svg>