<svg id="Layer_1" xmlns="http://www.w3.org/2000/svg" viewBox="0 0 1563.9 1563.9">
  <style>
    .st1{fill:#997a54}.st2{fill:gray}.st3{fill:teal}.st4{fill:#388d42}.st6{fill:#231f20}.st7{fill:#e0e0e0}.st9{fill:#282828}.st10{fill:#c0996b}
  </style>
  <path fill="#6b6fb4" d="M1467.9 40h47.5v1475.4h-47.5z"/>
  <path class="st1" d="M1427.9 1041.6v473.8H1296l-168.6-237.2 108.8-202.9zM1259.2 1515.4H763.7l152-222.8 186.3 1.6z"/>
  <path class="st2" d="M890.8 1275.7l-163.4 239.7H581.2l-58.7-308.1 54-210.3 206.9 19.9z"/>
  <path class="st3" d="M550.7 1515.4H279.2l-30.7-220.8 36.3-51.8L495 1223z"/>
  <path class="st4" d="M248.9 1515.4H40v-268.7l179.3 55.6z"/>
  <path class="st2" d="M1427.9 649.7v361.4l-197.1 34.7-233.5-196.1 39.1-191.1 215.2-28z"/>
  <path class="st1" d="M1207.5 1065.5l-106.6 198.7-183-1.6-105.9-255 168.5-132.8z"/>
  <path class="st2" d="M1007.6 649.4l-40.4 197.7-178 140.2-217-20.9-44.1-47.2 18.9-73.3 298.4-297.2 85.7 12.2z"/>
  <path class="st4" d="M548.6 985l-53.4 207.9-209.6 19.7L183 990.8l196.1-69.6 125.1 16.5z"/>
  <path class="st3" d="M259.2 1226.9l-32.4 46.3L40 1215.3v-219l112.9.8zM1427.9 346v273.5l-162.6-17.6-23.9-261.1 42.1-41.6z"/>
  <path class="st4" d="M1235.2 602.5l-205.3 26.7-74.5-86.1 60.1-214.1 196.5 19.8z"/>
  <path class="st1" d="M816.1 535.6L543.2 807.3l-70.8-392.5 89.7-36.6z"/>
  <path class="st2" d="M518.1 837.6l-17.8 69.3L387.4 892 250.9 611.5l98.9-198.4 93 6.5zM356.6 897.3l-196.7 69.8-119.9-.8V694.4L226.5 630z"/>
  <path class="st4" d="M1427.9 40v274.5l-137-44.4-89-230.1z"/>
  <path class="st3" d="M1261.9 278.4l-41.6 41-201.5-20.2L1004.9 40h164.8z"/>
  <path class="st2" d="M989.4 311.1l-61.5 219-82.5-11.7-263.5-163.2L701.9 40h273z"/>
  <path class="st1" d="M669.8 40l-118 310-98.8 40.3-106.4-7.4L40 130.4V40zM322.1 401.5l-98.7 197.8L40 662.7V169.2z"/>
  <g opacity=".5">
    <path class="st6" d="M355.2 391.4l-14.8-1.1-9.8 19.7L48.5 177.7v-38.8zM570.6 386.8l-89.7 36.5-4.2-23.5-15.2-1 98.8-40.3-6.7 17.7zM853.9 557.2l18.8-18.6-18.8-11.7 82.5 11.7-5.7 20.4 8.9 10.4zM395.9 900.5l-11.5-1.5-19.3 6.8L235 638.5l18.3-6.3 6.1-12.1zM555.5 854.4l-18.9 73.3-9.3-9.9-18.5-2.4 17.8-69.3 5.7 31.4zM784.1 1006.6l7.8 18.8-206.9-19.9 5.2-20.4-9.5-10.2 217.1 20.9zM1044.9 667.1l-39.1 191.1-16.2-13.6-13.9 11 40.4-197.7 10.1 11.7z"/>
    <path class="st6" d="M8.5 8.5v1555.4h1555.4V8.5H8.5zm1427.9 1515.4H48.5V48.5h1387.9v1475.4zm87.5 0h-47.5V48.5h47.5v1475.4z"/>
    <path class="st6" d="M500.3 1214.8l3.2 16.7-210.2 19.8-36.3 51.8 30.7 220.8h-30.3l-29.6-213.1-179.3-55.6v-31.4l186.8 57.9 32.4-46.3-106.3-229.8 12.1.1 18-6.4 102.6 221.8 209.6-19.7zM1436.4 323v31.5L1292 307.7l-42.1 41.6 23.9 261.1-14-1.5-16.1 2.1-23.2-253.7-196.5-19.8 4.1-14.5-.8-15.3 201.5 20.2 41.6-41-92.2-238.4h32.2l89 230.1z"/>
    <path class="st6" d="M1436.4 628v30.2l-176.3-19.1-215.2 28-18.7 2.5-10.1-11.7-76.5-88.5-8.9-10.4 5.7-20.4 61.5-219-14.5-271.1h30l13.9 259.2.8 15.3-4.1 14.5-60.1 214.1 74.5 86.1 205.3-26.7 16.1-2.1 14 1.5zM531 1215.8l58.7 308.1h-30.5l-55.7-292.4-3.2-16.7 3.4-13.4 53.4-207.8-44.4-47.4-125.1-16.5-196.1 69.6-18 6.4-12.1-.1-112.9-.8v-30l119.9.8 196.7-69.8 19.3-6.8 11.5 1.5 112.9 14.9 18.5 2.4 9.3 9.9 44.1 47.2 9.5 10.2-5.2 20.4zM872.7 538.6l-18.8 18.6-298.4 297.2-23.2 23.1-5.7-31.4-75.3-418-93-6.5-98.9 198.5-6.1 12.1-18.3 6.3-186.5 64.4v-31.7L232 607.8 330.6 410l9.8-19.7 14.8 1.1 106.3 7.4 15.2 1 4.2 23.5 70.8 392.5 272.9-271.7-254-157.3-17-10.6 6.7-17.7 118-310h32.1l-120 315.2 263.5 163.2zM1436.4 1019.6v30.5l-191.6 33.7-14.1 2.5-14.7-12.3-227-190.7-168.5 132.8 105.9 255 6.9 16.6-9.1 13.4-152 222.8h-36.3l163.4-239.7-107.4-258.8-7.8-18.8 13.7-10.8 177.9-140.2 13.9-11 16.2 13.6 233.5 196.1z"/>
    <path class="st6" d="M1304.5 1523.9h-36.8l-157.2-221.2-186.3-1.6 9.1-13.4-6.9-16.6 183 1.6L1216 1074l14.7 12.3 14.1-2.5-108.9 202.9z"/>
  </g>
  <path class="st7" d="M346.6 382.9l-14.7-1.1-9.8 19.7L40 169.2v-38.8zM562.1 378.2l-89.7 36.6-4.2-23.5-15.2-1 98.8-40.3-6.8 17.7zM845.4 548.7l18.8-18.7-18.8-11.6 82.5 11.7-5.7 20.4 8.9 10.4zM387.4 892l-11.5-1.5-19.3 6.8L226.5 630l18.3-6.3 6.1-12.2zM547 845.9l-18.9 73.3-9.3-9.9-18.5-2.4 17.8-69.3 5.7 31.4zM775.6 998.1l7.8 18.8L576.5 997l5.2-20.4-9.5-10.2 217 20.9zM1036.4 658.6l-39.1 191.1-16.2-13.6-13.9 11 40.4-197.7 10.1 11.7z"/>
  <path d="M0 0v1555.4h1555.4V0H0zm1427.9 1515.4H40V40h1387.9v1475.4zm87.5 0h-47.5V40h47.5v1475.4z" fill="silver"/>
  <path class="st7" d="M491.8 1206.3l3.2 16.7-210.2 19.8-36.3 51.8 30.7 220.8h-30.3l-29.6-213.1L40 1246.7v-31.4l186.8 57.9 32.4-46.3-106.3-229.8 12.1.1 18-6.4 102.6 221.8 209.6-19.7zM1427.9 314.5V346l-144.4-46.8-42.1 41.6 23.9 261.1-14-1.5-16.1 2.1-23.2-253.7-196.5-19.8 4.1-14.5-.8-15.3 201.5 20.2 41.6-41L1169.7 40h32.2l89 230.1z"/>
  <path class="st9" d="M1427.9 619.5v30.2l-176.3-19.1-215.2 28-18.7 2.5-10.1-11.7-76.5-88.5-8.9-10.4 5.7-20.4 61.5-219L974.9 40h30l13.9 259.2.8 15.3-4.1 14.5-60.1 214.1 74.5 86.1 205.3-26.7 16.1-2.1 14 1.5zM522.5 1207.3l58.7 308.1h-30.5L495 1223l-3.2-16.7 3.4-13.4L548.6 985l-44.4-47.3-125.1-16.5L183 990.8l-18 6.4-12.1-.1-112.9-.8v-30l119.9.8 196.7-69.8 19.3-6.8 11.5 1.5 112.9 14.9 18.5 2.4 9.3 9.9 44.1 47.2 9.5 10.2-5.2 20.4z"/>
  <path class="st10" d="M864.2 530l-18.8 18.7L547 845.9 523.8 869l-5.7-31.4-75.3-418-93-6.5-98.9 198.4-6.1 12.2-18.3 6.3L40 694.4v-31.7l183.4-63.4 98.7-197.8 9.8-19.7 14.7 1.1 106.4 7.4 15.2 1 4.2 23.5 70.8 392.5 272.9-271.7-254-157.4-17.1-10.5 6.8-17.7 118-310h32.1l-120 315.2 263.5 163.2zM1427.9 1011.1v30.5l-191.7 33.7-14 2.5-14.7-12.3-227-190.7L812 1007.6l105.9 255 6.9 16.6-9.1 13.4-152 222.8h-36.3l163.4-239.7-107.4-258.8-7.8-18.8 13.6-10.8 178-140.2 13.9-11 16.2 13.6 233.5 196.1z"/>
  <path class="st7" d="M1296 1515.4h-36.8L1102 1294.2l-186.3-1.6 9.1-13.4-6.9-16.6 183 1.6 106.6-198.7 14.7 12.3 14-2.5-108.8 202.9z"/>
</svg>
