<svg xmlns="http://www.w3.org/2000/svg" viewBox="0 0 1563.9 1563.9"><defs><style>.cls-1{fill:none}.cls-4{fill:#997a54}.cls-5{fill:gray}.cls-6{fill:teal}.cls-7{fill:#388d42}.cls-11{opacity:0.25}.cls-16{mix-blend-mode:darken}.cls-10{fill:#282828}.cls-11,.cls-13{mix-blend-mode:overlay}.cls-12{fill:#c0996b}.cls-13{opacity:0.34}.cls-14{fill:#e0e0e0}.cls-16{opacity:0.5}.cls-17{fill:#231f20}.cls-19{fill:#e8e3cd}</style><clipPath id="clip-path"><path class="cls-1" d="M149.81 630.81l-20 199 85 137 165-54 134 19 408-25 56-44 372 44-15-278-307 13-347 51-153 137-55-340-236 122-87 19z"/></clipPath><clipPath id="clip-path-2"><path class="cls-1" d="M28.81 29.81v649l198-67 120-210h106l75 434 309-306-275-170 136-330h-669z"/></clipPath></defs><g style="isolation:isolate"><g id="Layer_2" data-name="Layer 2"><g id="Front"><g id="Update_31" data-name="Update 31"><g id="Zones"><path fill="#6b6fb4" d="M1467.93 40h47.47v1475.4h-47.47z"/><path class="cls-4" d="M1427.93 1041.6v473.8H1296l-168.57-237.2 108.82-202.87 191.68-33.73zM1259.19 1515.4H763.73l151.96-222.85 186.32 1.69 157.18 221.16z"/><path class="cls-5" d="M890.84 1275.73L727.42 1515.4H581.19l-58.68-308.11 53.97-210.32 206.93 19.91 107.43 258.85z"/><path class="cls-6" d="M550.66 1515.4H279.18l-30.7-220.8 36.3-51.84 210.18-19.74 55.7 292.38z"/><path class="cls-7" d="M248.88 1515.4H40v-268.68l179.27 55.59 29.61 213.09z"/><path class="cls-5" d="M1427.93 649.7v361.43l-197.16 34.69L997.3 849.74l39.07-191.11 215.27-28.05 176.29 19.12z"/><path class="cls-4" d="M1207.5 1065.46l-106.62 198.77-183.01-1.66-105.85-255.01 168.49-132.75 226.99 190.65z"/><path class="cls-5" d="M1007.63 649.37l-40.42 197.72L789.25 987.3l-217.03-20.88-44.16-47.18 18.91-73.36 298.47-297.17 85.7 12.16 76.49 88.5z"/><path class="cls-7" d="M548.57 985.05l-53.33 207.82-209.61 19.68L183 990.77l196.09-69.62 125.1 16.5 44.38 47.4z"/><path class="cls-6" d="M259.24 1226.94l-32.45 46.3L40 1215.31V996.28l112.85.79h.01l106.38 229.87zM1427.93 346.03v273.5l-162.64-17.64-23.9-261.13 42.13-41.54 144.41 46.81z"/><path class="cls-7" d="M1235.22 602.47l-205.34 26.76-74.45-86.13 60.09-214.11L1212 348.75l23.22 253.72z"/><path class="cls-4" d="M816.11 535.57L543.16 807.33 472.4 414.78l89.67-36.53 254.04 157.32z"/><path class="cls-5" d="M518.13 837.57v.01l-17.86 69.29L387.43 892 250.86 611.55l98.9-198.41 93.03 6.49 75.34 417.94zM356.64 897.29l-196.7 69.83L40 966.28V694.43l186.48-64.44 130.16 267.3z"/><path class="cls-7" d="M1427.93 40v274.49l-137.04-44.42L1201.88 40h226.05z"/><path class="cls-6" d="M1261.93 278.38l-41.63 41.05-201.53-20.25L1004.9 40h164.81l92.22 238.38z"/><path class="cls-5" d="M989.37 311.14l-61.45 218.97-82.53-11.7-.01-.01h-.01L581.9 355.24 701.92 40h272.94l14.51 271.14z"/><path class="cls-4" d="M669.81 40L551.78 350.04l-98.75 40.23-106.38-7.42L40 130.35V40h629.81zM322.06 401.48L223.45 599.3 40 662.7V169.21l282.06 232.27z"/></g><g id="Zone_Names" data-name="Zone Names"><g style="mix-blend-mode:darken" opacity=".25" clip-path="url(#clip-path)" id="Eternia"><path class="cls-10" d="M215.98 743.96c7.1-18.95-.09-24.51-1.68-25.55l46.8 17.53c-1.42-.31-10.85-1.64-18.24 18.1l-33.39 89.16 26.12 9.78c17.99 6.74 24.25 7.1 37.2-3.93l-17.75 31.5-88.01-32.95c1.23.24 9.69 1.2 17.87-20.66zM405.33 772l24.2 2.83L461.7 891.1c6.03 23.16 14.7 27.3 16.5 27.92L423 912.56c1.67-.01 7.8-.96 8.72-8.75.45-3.9-2.66-14.66-4.73-23.64l-52.3-6.11-5.8 12.22c-1.92 3.93-2.87 6.73-3.1 8.78-1.04 8.82 5.34 11.23 7.16 11.65L327 901.34c1.87.01 10.38-1.7 22.35-24zm16.78 89.51l-13.59-52.74L383.55 857zM546.78 805.73c-.8-20.23-9.57-22.57-11.44-22.9l49.94-1.97c-1.43.26-10.64 2.69-9.81 23.74l3.74 95.14 27.86-1.1c19.2-.75 25.1-2.84 32.78-18.02l-4.17 35.92-93.9 3.7c1.22-.26 9.4-2.65 8.48-25.97zM695 792.09c-4.3-19.78-13.34-20.56-15.25-20.57l48.84-10.63c-1.37.5-10.01 4.5-5.53 25.09L743.32 879l27.24-5.93c18.77-4.08 24.23-7.17 29.14-23.46l2.15 36.1-91.83 19.99c1.17-.47 8.8-4.24 3.84-27.05zM880.41 720.65l23.43-6.7 74.43 94.91c14.48 19.06 24.07 19.54 25.97 19.43l-53.41 15.28c1.53-.65 6.83-3.89 4.67-11.43-1.08-3.77-8.09-12.5-13.45-20l-50.64 14.5-.64 13.5c-.26 4.37-.06 7.32.51 9.3 2.45 8.54 9.26 8.31 11.1 8l-44.48 12.73c1.73-.7 8.94-5.56 11.4-30.76zm49.94 76.15l-32.84-43.45-4.49 54.14zM1061.7 716.02c1.32-20.81-9.43-24.2-11.05-24.71l60.4 3.87c32.35 2.07 47.37 22.9 46.06 43.3-1.2 18.76-14.4 34.27-36.03 35.78 3.37 2.29 6.8 6.85 9.54 12.61l16.31 32.92c6.96 14.1 14.9 16.27 16.94 16.6l-41.84-2.67-20.17-43.72c-4.35-9.6-7.49-12.28-12.85-12.62l-2.88-.19-2 31.13c-1.3 20.2 7.41 23.24 9.05 23.55l-49.68-3.18c1.46-.12 11.06-1.36 12.4-22.18zm39.84 43.54c17.52 1.12 25.26-9.98 26.04-22.14.74-11.54-6.82-22.79-23.3-23.84l-14.23-.91-2.94 45.96zM1301.58 725.28l23.36 6.95 11.65 120.06c1.95 23.86 9.77 29.42 11.43 30.35l-53.24-15.86c1.64.27 7.85.4 10.1-7.12 1.11-3.77-.1-14.9-.59-24.1l-50.48-15.03-7.8 11.03c-2.57 3.55-4 6.14-4.58 8.12-2.54 8.51 3.33 11.98 5.05 12.71l-44.34-13.2c1.84.33 10.52.11 26.15-19.8zm1.1 91.06l-4.3-54.3-32.9 43.21z"/></g><g class="cls-11"><path class="cls-12" d="M958.77 995.92c12.73-15.47 7.42-23.32 6.24-24.82l39.56 32.54c-1.25-.76-9.71-4.78-22.83 11.18l-22.57 27.43 45.77 37.66 22.57-27.43c12.86-15.63 7.42-23.32 6.25-24.82l39.55 32.54c-1.24-.76-9.57-4.94-22.83 11.17l-58 70.5c-12.99 15.8-7.7 23.35-6.56 24.56l-39.56-32.54c1.25.76 9.77 5.36 23.15-10.91l23.5-28.55-45.78-37.66-23.5 28.55c-13.11 15.95-7.7 23.34-6.55 24.55l-39.56-32.54c1.25.76 9.76 5.36 23.15-10.91zM1039.79 1124.35c26.24-31.9 69.62-38.46 102.64-11.3 32.06 26.38 31.97 66.15 7.17 96.3-25.59 31.1-68.51 39.38-102.17 11.7-32.22-26.51-32.31-66.7-7.64-96.7zm83.14 70.27c19.55-23.76 23.16-51.55 2.26-68.74-15.95-13.12-39.02-10.44-58.05 12.69-21 25.52-22.78 52.4-2.52 69.06 16.27 13.39 39.67 9.64 58.3-13zM1196.61 1191.86c12.86-15.63 7.87-23.22 6.7-24.72l38.6 31.76c-1.25-.76-9.74-5.07-23.13 11.2l-60.49 73.53 21.53 17.71c14.84 12.2 20.64 14.58 36.47 8.34l-27 24.05-72.58-59.7c1.09.62 8.78 4.28 23.6-13.75zM1246.5 1294.41c26.24-31.9 69.62-38.47 102.64-11.3 32.06 26.37 31.97 66.15 7.17 96.3-25.59 31.1-68.51 39.38-102.17 11.7-32.22-26.51-32.31-66.71-7.64-96.7zm83.14 70.27c19.55-23.76 23.16-51.55 2.26-68.74-15.95-13.12-39.02-10.44-58.05 12.69-21 25.52-22.78 52.4-2.52 69.06 16.27 13.39 39.67 9.64 58.3-13z"/></g><g class="cls-13"><path class="cls-14" d="M1045.6 560.64c18.46 4.24 30.07-1.75 37.91-11.89 6.06-7.82 7.53-17.14 1.37-21.9-9.11-7.06-21.86 1.74-35.85 8.15-11.47 5.27-24.18 8.98-36.11-.26-16.8-13-14.9-33.48-1.8-50.41 6.35-8.21 15.27-14.44 22.05-16.58l20.4 15.79c-8.87-1.53-23.06 1.44-30.9 11.57-6.65 8.6-5.72 15.88-.46 19.95 6.92 5.36 16.34.34 27.3-5.33 13.97-7.45 30.1-15.06 45.76-2.95 16.68 12.9 14.84 33.84.54 52.32-7.34 9.49-17.35 17.13-25.97 20.3zM1061.23 452.96c-12.44-9.63-19.27-4.25-20.52-3.16l44.97-58.12 22.84 17.67c-7.17-2.67-14.94-3.76-23.28 7.01l-12.5 16.17 24.75 19.16 10.92-14.11c6.66-8.6 4.16-12.79 3.59-13.64l20.27 15.68c-.49-.17-5.03-2.25-11.98 6.73l-11.12 14.37 25.53 19.76 13.5-17.45c8.54-11.03 8.48-17.85 3.43-29.34l20.68 22.57-45.36 58.63c.56-1 3.82-8.12-9.9-18.75zM1114.97 383.78c-12.58-9.72-18.41-5.63-19.56-4.67l24.02-31.05c-.57 1-3.75 7.76 9.34 17.9l59.14 45.76 13.4-17.32c9.23-11.94 10.96-16.55 5.69-28.83l19.52 20.64-45.17 58.37c.46-.87 3.15-6.99-11.35-18.2zM1169.64 312.87c-12.45-9.63-19.28-4.25-20.53-3.17l44.97-58.11 22.84 17.67c-7.16-2.67-14.93-3.76-23.27 7.01l-12.51 16.17 24.76 19.16 10.92-14.12c6.65-8.6 4.15-12.78 3.58-13.63l20.27 15.68c-.49-.17-5.03-2.25-11.98 6.73l-11.12 14.37 25.53 19.76 13.5-17.45c8.54-11.04 8.48-17.85 3.43-29.35l20.69 22.57-45.37 58.63c.57-1 3.82-8.12-9.9-18.74zM1225.2 242.65c-9.88-7.65-23.09-.64-24.17-.04l21.05-27.2 81.59-1.27-36.3-28.1c-12.33-9.53-18.43-4.82-19.58-3.86l21.54-27.84c-.57 1-3.75 7.76 8.95 17.6l71.33 55.19-10.32 13.34s-12.24-4.34-33.2-3.74l-57.04 1.6 43.5 33.66c12.3 9.53 18.81 4.3 19.93 3.12l-22.04 28.48c.57-1 3.78-7.53-8.92-17.36zM1295.8 149.81c-12.44-9.63-19.27-4.25-20.51-3.16l44.97-58.12 22.83 17.67c-7.16-2.67-14.93-3.76-23.27 7.02l-12.5 16.16 24.75 19.16 10.92-14.11c6.65-8.6 4.15-12.79 3.58-13.64l20.27 15.68c-.48-.17-5.03-2.25-11.97 6.73l-11.12 14.37 25.53 19.76 13.5-17.45c8.54-11.03 8.48-17.85 3.43-29.34l20.68 22.57-45.37 58.63c.57-1 3.82-8.12-9.9-18.75z"/></g><g class="cls-11" clip-path="url(#clip-path-2)" id="NW"><path class="cls-12" d="M73.66 162.31c1.27.73 9.83 4.53 37.89-4.23l45.92-14.2 4.55-56.18c1.9-25.25-2.84-32.61-3.73-33.83l45.6 35.58a7.54 7.54 0 0 0-9.56 2.5c-2.16 2.77-3.74 7.82-4.4 16.73l-2.35 27.52 26.38-7.97c9.65-2.95 14.61-5.62 16.9-8.56 3.43-4.4 1.07-8.07.38-8.87l38.1 29.73c-1.1-.6-9.3-3.85-33.28 3.37l-50.53 15.06-4.35 54.25c-2.27 28.1 3.33 35.35 3.86 36.02l-46.25-36.09c.82.64 5.81 2.97 10-2.4 2.3-2.94 3.8-8.57 4.66-18.39l2.01-25.41-24.07 7.68c-10.6 3.51-15.9 5.93-18.18 8.86-3.81 4.89-1.32 8.4-.3 9.46zM271.24 170.32c11.95-15.31 6.15-22.98 5.26-24.2l40.06 31.26c-.94-.47-9.87-4.81-22.2 10.98l-57.81 74.09c-11.44 14.65-5.96 22.07-4.78 23.25l-39.9-31.13c1.27.72 9.74 4.98 21.56-10.17zM322.62 212.24c12.58-16.12 6.38-24.62 5-26.22l50 39.01c22.8 17.8 23.46 43.46 9.86 60.89-15.38 19.7-42.03 24.3-67.27 4.61a67.1 67.1 0 0 1-12.97-13.26l-18.55 23.77c-12.58 16.12-6 24.14-4.66 25.45l-39.9-31.14c1.15.9 9.62 5.15 22.58-11.46zm-3.69 50.05a55.44 55.44 0 0 0 10.66 11.2c11.72 9.14 24.59 6.08 33.6-5.48 8.52-10.9 7.9-24.22-4.63-34l-10.9-8.52zM416.79 284.95c12.33-15.8 6.81-23.5 5.6-24.97l40.38 31.51c-1.26-.73-9.83-4.53-22.53 11.76l-21.86 28 46.73 36.47 21.86-28c12.45-15.96 6.81-23.5 5.6-24.98l40.38 31.52c-1.27-.73-9.7-4.7-22.53 11.75l-56.17 71.97c-12.58 16.12-7.1 23.54-5.93 24.72l-40.38-31.51c1.27.72 9.9 5.1 22.86-11.5l22.75-29.15-46.73-36.47-22.75 29.15c-12.7 16.28-7.1 23.53-5.93 24.71l-40.38-31.51c1.27.73 9.9 5.1 22.86-11.5zM501.09 411.26C526.5 378.69 569.7 371 603.4 397.3c32.73 25.54 33.66 65.3 9.64 96.08-24.78 31.75-67.47 41.14-101.83 14.33-32.9-25.67-34.02-65.85-10.13-96.46zm84.92 68.1c18.93-24.26 21.82-52.13.5-68.78-16.3-12.7-39.28-9.43-57.71 14.18-20.33 26.05-21.43 52.97-.75 69.1 16.61 12.97 39.91 8.62 57.96-14.5zM611.93 523.7c-5.5 23.48 2.08 38.3 14.94 48.33 9.93 7.75 21.8 9.67 27.9 1.86 9.01-11.56-2.12-27.85-10.2-45.69-6.66-14.63-11.31-30.83.5-45.97 16.65-21.33 42.72-18.8 64.2-2.03 10.43 8.13 18.3 19.52 21 28.16l-20.21 25.9c2-11.29-1.7-29.37-14.57-39.41-10.91-8.52-20.19-7.37-25.4-.7-6.86 8.8-.52 20.82 6.65 34.8 9.4 17.82 19.01 38.41 3.5 58.28-16.51 21.16-43.16 18.71-66.6.41-12.05-9.4-21.72-22.19-25.73-33.17z"/></g><g class="cls-13"><path class="cls-14" d="M217.72 1412.29c-17.27-10.32-26.11-1.2-27.19.13l31.22-52.23c-.66 1.58-4.34 12.94 12.5 23.01l38.09 22.76c-2.6 17.1-11.7 38.48-21.28 54.5-27.86 46.6-75.95 50.06-111.33 28.91-38.08-22.76-60.2-71.28-28.85-123.72 12.69-21.22 26.51-31.6 32.33-35.18l36 21.52c-15.06-.8-35.3 5.17-48.97 28.06-15.67 26.22-6.06 57.38 24.53 75.66s63.09 12.58 78.38-13.02a55.58 55.58 0 0 0 6.63-17.22zM187.5 1244.55l14.68-24.56 139.94 21.51c27.7 4.7 36.29-2.6 37.82-4.22l-33.46 55.97c.8-1.78 2.73-8.81-5.17-13.54-3.96-2.36-16.97-4.21-27.58-6.31l-31.71 53.06 10.29 12.08c3.29 3.94 5.83 6.3 7.9 7.55 8.96 5.35 14.6-.32 15.93-2.06l-27.86 46.6c.9-2 3.18-11.93-14.94-35.47zm103.9 25.1l-63-10.83 39.62 49.95zM275.7 1150.4c-20.4-12.2-28.32-5.07-29.86-3.44l30.1-50.36c-.66 1.58-4.18 12.19 17.04 24.88l95.93 57.33 16.79-28.09c11.56-19.35 13.3-26.5 3.3-43.78l32.63 27.13-56.59 94.68c.54-1.37 3.43-10.94-20.08-25zM343.36 1037.2c-20.4-12.19-28.32-5.06-29.86-3.44l30.1-50.35c-.66 1.58-4.18 12.18 17.04 24.87l95.93 57.34 16.79-28.1c11.57-19.35 13.3-26.5 3.3-43.78l32.63 27.14-56.59 94.67c.54-1.37 3.43-10.94-20.08-25z"/></g></g><g id="Walls"><g class="cls-16"><path class="cls-17" d="M355.15 391.35l-14.79-1.03-9.8 19.66L48.5 177.71v-38.86l306.65 252.5zM570.57 386.75l-89.67 36.53-4.23-23.45-15.14-1.06 98.75-40.23-6.73 17.67 17.02 10.54zM853.94 557.21l18.74-18.66-18.79-11.64 82.53 11.7-5.73 20.41 8.95 10.35-85.7-12.16zM395.93 900.5l-11.57-1.53-19.22 6.82-130.16-267.3 18.35-6.34 6.03-12.1L395.93 900.5zM555.47 854.38l-18.9 73.36-9.3-9.93-18.5-2.44 17.86-69.29 5.66 31.38 23.18-23.08zM784.1 1006.56l7.81 18.82-206.93-19.9 5.24-20.4-9.5-10.16 217.03 20.88-13.65 10.76zM1044.87 667.13l-39.07 191.11-16.19-13.6-13.9 10.95 40.42-197.72 10.11 11.7 18.63-2.44z"/><path class="cls-17" d="M8.5 8.5v1555.4h1555.4V8.5zm1427.93 1515.4H48.5V48.5h1387.93zm87.47 0h-47.47V48.5h47.47z"/><path class="cls-17" d="M500.28 1214.83l3.18 16.7-210.18 19.73-36.3 51.84 30.7 220.8h-30.3l-29.6-213.09-179.28-55.59v-31.4l186.8 57.92 32.44-46.3-106.38-229.87 12.15.1 18-6.4 102.62 221.78 209.61-19.68-3.46 13.46zM1436.43 323v31.53l-144.4-46.8-42.14 41.53 23.9 261.13-13.98-1.52-16.09 2.1-23.22-253.72-196.48-19.76 4.07-14.5-.82-15.3 201.53 20.24 41.63-41.05-92.22-238.38h32.17l89.01 230.07L1436.43 323z"/><path class="cls-17" d="M1436.43 628.03v30.17l-176.29-19.12-215.27 28.05-18.63 2.43-10.1-11.69-76.5-88.5-8.95-10.35 5.73-20.4 61.45-218.98-14.5-271.14h30.03l13.87 259.18.82 15.3-4.07 14.51-60.09 214.11 74.45 86.13 205.34-26.76 16.1-2.1 13.97 1.52 162.64 17.64zM531.01 1215.8l58.68 308.1h-30.53l-55.7-292.38-3.18-16.69 3.46-13.46 53.33-207.82-44.38-47.4-125.1-16.5-196.09 69.62-17.99 6.4-12.15-.1-112.86-.79v-30l119.94.84 196.7-69.83 19.22-6.82 11.57 1.53 112.84 14.87 18.5 2.44 9.3 9.93 44.15 47.18 9.5 10.15-5.24 20.4-53.97 210.32zM872.68 538.55l-18.74 18.66-298.47 297.17-23.18 23.08-5.66-31.38-75.34-417.95-93.03-6.49-98.9 198.41-6.03 12.1-18.35 6.34L48.5 702.93V671.2l183.45-63.4 98.61-197.82 9.8-19.66 14.8 1.03 106.37 7.42 15.14 1.06 4.23 23.45 70.76 392.55 272.95-271.76-254.04-157.32-17.02-10.54 6.73-17.67L678.31 48.5h32.11L590.4 363.74 853.87 526.9h.01l.01.01 18.8 11.64zM1436.43 1019.63v30.47l-191.68 33.73-14.06 2.47-14.69-12.34-226.99-190.65-168.49 132.75 105.85 255.01 6.91 16.65-9.09 13.33-151.96 222.85h-36.3l163.41-239.67-107.43-258.85-7.8-18.82 13.64-10.76 177.96-140.2 13.9-10.96 16.2 13.6 233.46 196.08 197.16-34.69z"/><path class="cls-17" d="M1304.5 1523.9h-36.8l-157.19-221.16-186.32-1.69 9.1-13.33-6.92-16.65 183.01 1.66L1216 1073.96l14.7 12.34 14.05-2.47-108.82 202.87 168.57 237.2z"/></g><path class="cls-14" d="M346.65 382.85l-14.79-1.03-9.8 19.66L40 169.21v-38.86l306.65 252.5zM562.07 378.25l-89.67 36.53-4.23-23.45-15.14-1.06 98.75-40.23-6.73 17.67 17.02 10.54zM845.44 548.71l18.74-18.66-18.79-11.64 82.53 11.7-5.73 20.41 8.95 10.35-85.7-12.16zM387.43 892l-11.57-1.53-19.22 6.82-130.16-267.3 18.35-6.34 6.03-12.1L387.43 892zM546.97 845.88l-18.91 73.36-9.3-9.93-18.49-2.44 17.86-69.29 5.66 31.38 23.18-23.08zM775.6 998.06l7.81 18.82-206.93-19.91 5.24-20.4-9.5-10.15 217.03 20.88-13.65 10.76zM1036.37 658.63L997.3 849.74l-16.19-13.6-13.9 10.95 40.42-197.72 10.11 11.69 18.63-2.43z"/><path d="M0 0v1555.4h1555.4V0zm1427.93 1515.4H40V40h1387.93zm87.47 0h-47.47V40h47.47z" fill="silver"/><path class="cls-14" d="M491.78 1206.33l3.18 16.69-210.18 19.74-36.3 51.84 30.7 220.8h-30.3l-29.61-213.09L40 1246.72v-31.41l186.79 57.93 32.45-46.3-106.38-229.87 12.15.09 17.99-6.39 102.63 221.78 209.61-19.68-3.46 13.46zM1427.93 314.49v31.54l-144.41-46.81-42.13 41.54 23.9 261.13-13.98-1.52-16.09 2.1L1212 348.75l-196.48-19.76 4.07-14.51-.82-15.3 201.53 20.25 41.63-41.05L1169.71 40h32.17l89.01 230.07 137.04 44.42z"/><path class="cls-10" d="M1427.93 619.53v30.17l-176.29-19.12-215.27 28.05-18.63 2.43-10.11-11.69-76.49-88.5-8.95-10.35 5.73-20.41 61.45-218.97L974.86 40h30.04l13.87 259.18.82 15.3-4.07 14.51-60.09 214.11 74.45 86.13 205.34-26.76 16.09-2.1 13.98 1.52 162.64 17.64zM522.51 1207.29l58.68 308.11h-30.53l-55.7-292.38-3.18-16.69 3.46-13.46 53.33-207.82-44.38-47.4-125.1-16.5L183 990.77l-17.99 6.39-12.15-.09h-.01L40 996.28v-30l119.94.84 196.7-69.83 19.22-6.82 11.57 1.53 112.84 14.87 18.49 2.44 9.3 9.93 44.16 47.18 9.5 10.15-5.24 20.4-53.97 210.32z"/><path class="cls-12" d="M864.18 530.05l-18.74 18.66-298.47 297.17-23.18 23.08-5.66-31.38v-.01l-75.34-417.94-93.03-6.49-98.9 198.41-6.03 12.1-18.35 6.34L40 694.43V662.7l183.45-63.4 98.61-197.82 9.8-19.66 14.79 1.03 106.38 7.42 15.14 1.06 4.23 23.45 70.76 392.55 272.95-271.76-254.04-157.32-17.02-10.54 6.73-17.67L669.81 40h32.11L581.9 355.24 845.37 518.4h.01l.01.01 18.79 11.64zM1427.93 1011.13v30.47l-191.68 33.73-14.06 2.47-14.69-12.34-226.99-190.65-168.49 132.75 105.85 255.01 6.91 16.65-9.09 13.33-151.96 222.85h-36.31l163.42-239.67-107.43-258.85-7.81-18.82 13.65-10.76 177.96-140.21 13.9-10.95 16.19 13.6 233.47 196.08 197.16-34.69z"/><path class="cls-14" d="M1296 1515.4h-36.81l-157.18-221.16-186.32-1.69 9.09-13.33-6.91-16.65 183.01 1.66 106.62-198.77 14.69 12.34 14.06-2.47-108.82 202.87L1296 1515.4z"/></g><g id="Sector_Names" data-name="Sector Names"><g class="cls-16"><path class="cls-17" d="M604.7 174.21a2.16 2.16 0 0 0 .17 2.05 4.18 4.18 0 0 0 2.1 1.51q3.13 1.2 4.03-1.15a7.95 7.95 0 0 0 .41-2.57l1.66.64a7.08 7.08 0 0 1-.5 2.75 4.19 4.19 0 0 1-2.42 2.64 5.6 5.6 0 0 1-3.96-.28 6.19 6.19 0 0 1-2.35-1.5 4.11 4.11 0 0 1-1.1-2.17 4.82 4.82 0 0 1 .3-2.55 6.74 6.74 0 0 1 1.7-2.48l1.37 1.26a11.48 11.48 0 0 0-.83.88 3.38 3.38 0 0 0-.59.97zM616.37 167.12l-2.48-.17-1.3 3.4 1.96 1.53-.82 2.13-8.11-6.88.92-2.42 10.64.28zm-4.32-.34l-3.82-.24-.7-.07q.74.52 3.59 2.75zM620.8 155.53l-.97 2.51-8.61 1.37-.02.06q1.91.59 2.71.9l4.4 1.67-.68 1.77-9.34-3.57.96-2.5 8.54-1.38.02-.04q-1.86-.6-2.61-.89l-4.42-1.69.68-1.78zM623.07 149.58l-.76 1.98-7.69-2.94-.96 2.53-1.65-.63 2.7-7.05 1.64.63-.97 2.54zM623.1 135.47a5.42 5.42 0 0 1 3.12 2.51 5.33 5.33 0 0 1-2.52 6.6 5.45 5.45 0 0 1-4.01-.23 5.37 5.37 0 0 1-3.12-2.5 4.62 4.62 0 0 1 .03-3.78 4.55 4.55 0 0 1 2.5-2.82 5.44 5.44 0 0 1 4 .22zm-2.6 6.81a4.17 4.17 0 0 0 2.57.31 2.22 2.22 0 0 0 1.47-1.47q.91-2.37-2.24-3.57-3.15-1.2-4.05 1.15a2.24 2.24 0 0 0 .11 2.08 4.16 4.16 0 0 0 2.13 1.5zM631.68 127.04l-.96 2.52-8.62 1.36-.02.06q1.92.6 2.72.9l4.39 1.68-.68 1.76-9.33-3.56.95-2.5 8.54-1.38.02-.05q-1.86-.6-2.6-.89l-4.43-1.68.68-1.79zM214.6 1169.5l1.86-1.64-1.5-3.32-2.46.31-.94-2.08 10.6-.9 1.07 2.36-7.7 7.35zm3.28-2.83l2.87-2.54.53-.44q-.89.16-4.47.6zM219.69 1180.8l-1.1-2.45 5.1-7.07-.02-.05q-1.78.94-2.56 1.29l-4.28 1.93-.78-1.73 9.11-4.1 1.1 2.44-5.04 7.03.02.04q1.73-.9 2.46-1.22l4.32-1.95.78 1.74zM222.3 1186.62l-.86-1.93 7.5-3.39-1.11-2.47 1.6-.72 3.1 6.88-1.6.72-1.12-2.47zM225.59 1193.9l-1.87-4.14 1.1-.5 1 .88 5.9-2.65.02-1.34 1.1-.5 1.86 4.15-1.1.5-1-.89-5.9 2.66-.02 1.34zM228.03 1199.32l6.16-5.42-.03-.05q-2.13 1.1-2.85 1.43l-4.24 1.9-.78-1.72 9.11-4.1 1.19 2.63-6 5.3.02.03 8-.85 1.18 2.63-9.11 4.1-.81-1.8 4.31-1.94q.3-.14.7-.3t2.17-.88l-.03-.05-8.2.86zM514.82 578.4l-.4-2.08 8.08-1.55-.5-2.67 1.72-.33 1.43 7.41-1.74.33-.5-2.66zM526.97 588.68l-6.35 1.22a3.73 3.73 0 0 1-2-.12 3.22 3.22 0 0 1-1.53-1.17 5.11 5.11 0 0 1-.85-2.09 4.24 4.24 0 0 1 .4-3.13 3.5 3.5 0 0 1 2.46-1.55l6.32-1.22.4 2.08-6 1.15a2.57 2.57 0 0 0-1.59.78 1.93 1.93 0 0 0-.24 1.61 1.89 1.89 0 0 0 .82 1.38 2.58 2.58 0 0 0 1.77.14l6-1.15zM521.78 594.33l-3.77.72-.4-2.08 9.82-1.89.55 2.86a4.98 4.98 0 0 1-.16 3.1 2.96 2.96 0 0 1-3.66 1.2 3.2 3.2 0 0 1-1.32-1.14l-3.72 3.7-.44-2.3 3.31-3.07zm1.7-.33l.12.67a2.62 2.62 0 0 0 .6 1.4 1.2 1.2 0 0 0 1.13.27 1.1 1.1 0 0 0 .9-.67 2.96 2.96 0 0 0 .01-1.55l-.12-.63zM521.03 610.75l-.51-2.64 6.6-5.7v-.06q-1.95.5-2.79.67l-4.62.88-.35-1.86 9.81-1.88.5 2.63-6.53 5.67.01.05q1.9-.47 2.69-.62l4.64-.9.36 1.88zM522.2 616.9l-.85-4.47 1.18-.23.78 1.1 6.35-1.23.32-1.3 1.18-.22.86 4.46-1.18.23-.78-1.1-6.35 1.23-.32 1.3zM530.58 624.06a3.06 3.06 0 0 1-2.61-.53 4.31 4.31 0 0 1-1.38-2.65l-.17-.9-3.5.67-.4-2.08 9.82-1.88.6 3.13a4.24 4.24 0 0 1-.24 2.87 2.86 2.86 0 0 1-2.12 1.37zm-2.46-4.4l.13.68a2.32 2.32 0 0 0 .66 1.36 1.35 1.35 0 0 0 1.2.27 1.39 1.39 0 0 0 1-.6 1.9 1.9 0 0 0 .1-1.33l-.17-.94zM528.02 632.48a2.58 2.58 0 0 1-2.28-.56 4.23 4.23 0 0 1-1.27-2.51 6.38 6.38 0 0 1 .05-2.9l1.94-.37a11.62 11.62 0 0 0-.3 1.8 5.08 5.08 0 0 0 .06 1.3 1.83 1.83 0 0 0 .46 1 .92.92 0 0 0 .85.22.88.88 0 0 0 .48-.26 1.84 1.84 0 0 0 .34-.56 12.62 12.62 0 0 0 .42-1.4 6.1 6.1 0 0 1 .56-1.5 3.12 3.12 0 0 1 .76-.9 2.64 2.64 0 0 1 1.16-.5 2.58 2.58 0 0 1 2.22.5 3.73 3.73 0 0 1 1.21 2.29 5.87 5.87 0 0 1 .1 1.5 10.23 10.23 0 0 1-.23 1.54l-1.75-.36a9.95 9.95 0 0 0 .2-1.38 4.23 4.23 0 0 0-.06-1.04 1.36 1.36 0 0 0-.45-.85.92.92 0 0 0-.78-.18.9.9 0 0 0-.46.22 1.42 1.42 0 0 0-.31.48 12.79 12.79 0 0 0-.44 1.46 5.35 5.35 0 0 1-.96 2.14 2.63 2.63 0 0 1-1.52.82zM527.15 642.67l-.45-2.36 3.64-3.36-.8-.76-3.5.67-.4-2.08 9.81-1.88.4 2.08-4.5.86 1.32.6 3.85 2.01.44 2.31-5-2.59zM528.1 647.58l-.86-4.46 1.18-.23.78 1.09 6.35-1.22.32-1.3 1.18-.23.86 4.47-1.18.22-.78-1.09-6.35 1.22-.33 1.3zM147.55 276.13a4.92 4.92 0 0 1-3.5 2.02 5.73 5.73 0 0 1-3.96-1.58l-2.18-1.8 6.37-7.7 2.42 2a5.28 5.28 0 0 1 2.1 3.41 4.75 4.75 0 0 1-1.25 3.65zm-1.74-1.36q2.06-2.48-.14-4.3l-.87-.71-4.14 5.01.7.58q2.36 1.95 4.45-.58zM148.78 283.76l-3.5-2.9.76-.93 1.3.34 4.12-4.98-.58-1.2.76-.93 3.5 2.9-.76.92-1.3-.34-4.12 4.98.59 1.2zM153.36 287.54l3.14-7.58-.05-.04q-1.42 1.93-1.93 2.55l-2.96 3.58-1.46-1.2 6.36-7.7 2.23 1.83-3.05 7.4.03.02 6.8-4.29 2.23 1.84-6.37 7.7-1.52-1.26 3.01-3.64.5-.6 1.55-1.73-.04-.03-6.98 4.39zM164.7 296.92l-4.43-3.66 6.37-7.7 4.43 3.66-1.1 1.34-2.8-2.32-1.4 1.7 2.6 2.15-1.1 1.33-2.61-2.15-1.64 1.99 2.8 2.31zM172.63 299.87a2.58 2.58 0 0 1-2.11 1.02 4.23 4.23 0 0 1-2.59-1.12 6.37 6.37 0 0 1-1.8-2.27l1.26-1.52a11.58 11.58 0 0 0 .91 1.58 5.04 5.04 0 0 0 .87.96 1.82 1.82 0 0 0 1 .48.91.91 0 0 0 .8-.37.88.88 0 0 0 .2-.51 1.83 1.83 0 0 0-.1-.65 12.46 12.46 0 0 0-.56-1.35 6.12 6.12 0 0 1-.53-1.5 3.1 3.1 0 0 1 .02-1.19 2.64 2.64 0 0 1 .58-1.12 2.58 2.58 0 0 1 2.02-1.03 3.73 3.73 0 0 1 2.4 1 5.9 5.9 0 0 1 1.02 1.08 10.28 10.28 0 0 1 .81 1.35l-1.57.83a9.93 9.93 0 0 0-.73-1.2 4.24 4.24 0 0 0-.71-.75 1.36 1.36 0 0 0-.89-.37.93.93 0 0 0-.71.36.91.91 0 0 0-.21.46 1.43 1.43 0 0 0 .06.57 12.73 12.73 0 0 0 .59 1.4 5.36 5.36 0 0 1 .62 2.26 2.63 2.63 0 0 1-.65 1.6zM899.01 1181.01a5.42 5.42 0 0 1-4 .32 5.33 5.33 0 0 1-2.68-6.52 5.44 5.44 0 0 1 3.07-2.6 5.37 5.37 0 0 1 4-.31 4.62 4.62 0 0 1 2.56 2.77 4.55 4.55 0 0 1 .11 3.76 5.43 5.43 0 0 1-3.06 2.58zm-2.78-6.74a4.17 4.17 0 0 0-2.09 1.55 2.22 2.22 0 0 0-.06 2.08q.97 2.35 4.09 1.06t2.16-3.62a2.24 2.24 0 0 0-1.52-1.44 4.16 4.16 0 0 0-2.58.37zM899.99 1189.24a2.59 2.59 0 0 1-2.35-.1 4.24 4.24 0 0 1-1.75-2.2 6.37 6.37 0 0 1-.52-2.85l1.82-.75a11.7 11.7 0 0 0 .06 1.83 5.07 5.07 0 0 0 .32 1.25 1.82 1.82 0 0 0 .65.9.91.91 0 0 0 .88.03.87.87 0 0 0 .42-.35 1.82 1.82 0 0 0 .22-.61 12.42 12.42 0 0 0 .14-1.46 6.14 6.14 0 0 1 .24-1.58 3.1 3.1 0 0 1 .57-1.03 2.63 2.63 0 0 1 1.03-.72 2.58 2.58 0 0 1 2.27.03 3.74 3.74 0 0 1 1.65 2.01 5.9 5.9 0 0 1 .4 1.45 10.22 10.22 0 0 1 .08 1.56h-1.78a9.86 9.86 0 0 0-.08-1.4 4.27 4.27 0 0 0-.27-1 1.36 1.36 0 0 0-.61-.75.93.93 0 0 0-.8-.01.9.9 0 0 0-.4.3 1.43 1.43 0 0 0-.22.54 12.82 12.82 0 0 0-.14 1.5 5.34 5.34 0 0 1-.5 2.3 2.63 2.63 0 0 1-1.33 1.1zM899.54 1195.43l-1.74-4.2 1.12-.47.98.92 5.98-2.47.05-1.34 1.11-.46 1.74 4.2-1.12.46-.98-.9-5.98 2.46-.05 1.34zM904.54 1197.5l-3.54 1.46-.81-1.95 9.24-3.82 1.1 2.7a4.98 4.98 0 0 1 .47 3.07 2.96 2.96 0 0 1-3.34 1.9 3.21 3.21 0 0 1-1.52-.85l-2.9 4.38-.9-2.18 2.63-3.67zm1.6-.65l.25.63a2.63 2.63 0 0 0 .88 1.24 1.2 1.2 0 0 0 1.16.04 1.1 1.1 0 0 0 .75-.84 2.96 2.96 0 0 0-.3-1.51l-.25-.6zM905.14 1209l-1.73-4.2 1.1-.46.99.92 5.98-2.47.05-1.34 1.11-.46 1.74 4.2-1.12.46-.98-.9-5.97 2.46-.06 1.34zM910.6 1214.98a2.58 2.58 0 0 1-2.34-.09 4.23 4.23 0 0 1-1.75-2.2 6.37 6.37 0 0 1-.53-2.85l1.82-.75a11.64 11.64 0 0 0 .07 1.82 5.1 5.1 0 0 0 .32 1.26 1.82 1.82 0 0 0 .65.89.91.91 0 0 0 .88.04.87.87 0 0 0 .42-.35 1.83 1.83 0 0 0 .22-.61 12.57 12.57 0 0 0 .13-1.46 6.14 6.14 0 0 1 .24-1.59 3.1 3.1 0 0 1 .58-1.03 2.63 2.63 0 0 1 1.03-.72 2.58 2.58 0 0 1 2.27.04 3.74 3.74 0 0 1 1.65 2 5.88 5.88 0 0 1 .4 1.45 10.21 10.21 0 0 1 .08 1.57h-1.78a9.95 9.95 0 0 0-.08-1.4 4.24 4.24 0 0 0-.28-1 1.36 1.36 0 0 0-.6-.75.92.92 0 0 0-.8-.02.9.9 0 0 0-.4.3 1.43 1.43 0 0 0-.22.54 12.77 12.77 0 0 0-.14 1.51 5.35 5.35 0 0 1-.5 2.3 2.62 2.62 0 0 1-1.34 1.1zM614.18 960.75a2.59 2.59 0 0 1-1.16 2.04 4.23 4.23 0 0 1-2.77.53 6.37 6.37 0 0 1-2.77-.85l.18-1.96a11.6 11.6 0 0 0 1.65.79 5.05 5.05 0 0 0 1.26.3 1.82 1.82 0 0 0 1.09-.17.91.91 0 0 0 .44-.76.87.87 0 0 0-.12-.54 1.82 1.82 0 0 0-.44-.48 12.36 12.36 0 0 0-1.23-.79 6.15 6.15 0 0 1-1.3-.94 3.11 3.11 0 0 1-.64-.99 2.64 2.64 0 0 1-.16-1.25 2.59 2.59 0 0 1 1.08-2 3.74 3.74 0 0 1 2.54-.53 5.88 5.88 0 0 1 1.47.32 10.3 10.3 0 0 1 1.43.65l-.83 1.58a9.95 9.95 0 0 0-1.28-.58 4.28 4.28 0 0 0-1.01-.22 1.36 1.36 0 0 0-.95.2.93.93 0 0 0-.38.7.9.9 0 0 0 .08.5 1.42 1.42 0 0 0 .38.43 12.81 12.81 0 0 0 1.28.82 5.33 5.33 0 0 1 1.79 1.51 2.62 2.62 0 0 1 .37 1.7zM619.36 958.1l2.44-3.91 2.28.2-3.85 5.78-.35 3.88-2.1-.19.35-3.8-2.76-6.45 2.3.2zM633.27 965.25l-2.68-.24-3.66-7.92h-.06q-.05 2-.13 2.85l-.42 4.69-1.88-.17.89-9.96 2.66.24 3.66 7.84h.04q.08-1.94.15-2.75l.42-4.7 1.9.16zM645.26 961.29a5.43 5.43 0 0 1-1.57 3.69 5.33 5.33 0 0 1-7.03-.63 5.45 5.45 0 0 1-.88-3.92 5.37 5.37 0 0 1 1.57-3.69 4.61 4.61 0 0 1 3.64-1 4.55 4.55 0 0 1 3.4 1.64 5.44 5.44 0 0 1 .87 3.9zm-7.27-.65a4.17 4.17 0 0 0 .41 2.57 2.22 2.22 0 0 0 1.82 1.01q2.52.23 2.82-3.13.3-3.36-2.2-3.59a2.24 2.24 0 0 0-1.98.68 4.16 4.16 0 0 0-.87 2.46zM653.37 957.01l2.13.19-4.27 9.65-2.3-.2-2.49-10.26 2.13.19 1.35 6.1q.1.53.21 1.24c.07.48.11.8.12 1a17.6 17.6 0 0 1 .7-2.16zM789.76 1069.03a2.58 2.58 0 0 1-2.34-.1 4.23 4.23 0 0 1-1.75-2.22 6.37 6.37 0 0 1-.5-2.85l1.81-.74a11.55 11.55 0 0 0 .06 1.83 5.06 5.06 0 0 0 .31 1.25 1.82 1.82 0 0 0 .65.9.91.91 0 0 0 .88.04.87.87 0 0 0 .42-.35 1.83 1.83 0 0 0 .23-.61 12.57 12.57 0 0 0 .14-1.46 6.16 6.16 0 0 1 .24-1.58 3.12 3.12 0 0 1 .58-1.03 2.64 2.64 0 0 1 1.04-.72 2.58 2.58 0 0 1 2.27.05 3.73 3.73 0 0 1 1.64 2.01 5.88 5.88 0 0 1 .39 1.45 10.32 10.32 0 0 1 .08 1.57l-1.79-.01a10.08 10.08 0 0 0-.07-1.4 4.25 4.25 0 0 0-.27-1 1.36 1.36 0 0 0-.6-.75.93.93 0 0 0-.8-.02.9.9 0 0 0-.4.3 1.42 1.42 0 0 0-.23.54 12.72 12.72 0 0 0-.14 1.5 5.35 5.35 0 0 1-.52 2.3 2.62 2.62 0 0 1-1.33 1.1zM789.33 1075.32l-.8-1.96 7.62-3.1-1.02-2.52 1.63-.67 2.85 7-1.64.66-1.02-2.51zM793.1 1084.59l-2.17-5.33 9.26-3.77 2.17 5.33-1.6.65-1.38-3.37-2.03.83 1.27 3.14-1.6.65-1.28-3.13-2.39.97 1.37 3.37zM795.35 1090.09l-.8-1.96 7.62-3.1-1.03-2.52 1.64-.67 2.84 7-1.63.66-1.02-2.52zM798.36 1097.5l-1.71-4.22 1.11-.45.98.91 5.99-2.44.06-1.34 1.11-.45 1.72 4.21-1.12.45-.98-.91-5.98 2.44-.06 1.34zM803.36 1099.59l-3.55 1.45-.8-1.97 9.25-3.77 1.1 2.7a4.98 4.98 0 0 1 .45 3.07 2.96 2.96 0 0 1-3.35 1.9 3.21 3.21 0 0 1-1.52-.87l-2.92 4.37-.89-2.18 2.65-3.66zm1.6-.65l.25.63a2.62 2.62 0 0 0 .87 1.25 1.2 1.2 0 0 0 1.16.05 1.1 1.1 0 0 0 .75-.84 2.97 2.97 0 0 0-.3-1.51l-.24-.6zM298.12 974.98l1.32 3.6-1.99.73-3.44-9.38 2.73-1a4.99 4.99 0 0 1 3.09-.35 2.96 2.96 0 0 1 1.78 3.42 3.21 3.21 0 0 1-.92 1.49l4.26 3.07-2.2.81-3.57-2.78zm-.6-1.61l.65-.24a2.62 2.62 0 0 0 1.28-.83 1.2 1.2 0 0 0 .08-1.15 1.1 1.1 0 0 0-.8-.78 2.97 2.97 0 0 0-1.53.24l-.6.22zM311.53 974.15l-5.4 1.98-3.44-9.38 5.4-1.99.6 1.63-3.42 1.26.76 2.06 3.18-1.17.6 1.63-3.18 1.17.89 2.42 3.41-1.26zM321.81 970.37l-2.52.93-6.7-5.6-.05.02q.81 1.84 1.1 2.64l1.63 4.41-1.78.66-3.44-9.39 2.5-.92 6.66 5.54.05-.02q-.77-1.8-1.05-2.55l-1.63-4.44 1.79-.66zM327.69 968.22l-4.27 1.56-.42-1.13.95-.94-2.22-6.07-1.34-.1-.41-1.14 4.26-1.56.42 1.13-.95.94 2.23 6.07 1.33.1zM134.41 695.6l-1.96.71-3.44-9.38 5.38-1.97.6 1.63-3.42 1.25.88 2.42 3.19-1.17.6 1.63-3.2 1.17zM143.18 692.38l-4.27 1.56-.42-1.13.95-.94-2.22-6.07-1.34-.1-.41-1.14 4.26-1.57.42 1.13-.95.95 2.23 6.07 1.33.1zM150.9 689.54l-6.99 2.57-.47-1.3 2.13-8.1-4.37 1.61-.6-1.64 6.73-2.47.47 1.28-2.12 8.1 4.61-1.69zM158.5 686.75l-6.97 2.56-.48-1.29 2.13-8.1-4.37 1.61-.6-1.64 6.73-2.48.47 1.29-2.12 8.1 4.61-1.7zM297.25 667.48a4.92 4.92 0 0 1-4.01.4 5.73 5.73 0 0 1-2.96-3.07l-1.24-2.54 8.98-4.39 1.37 2.82a5.29 5.29 0 0 1 .51 3.98 4.75 4.75 0 0 1-2.65 2.8zm-1.02-1.95q2.9-1.41 1.65-3.97l-.5-1.01-5.84 2.85.4.82q1.34 2.75 4.3 1.3zM300.2 671.73l4.61.07 1 2.05-6.94-.3-3.5 1.7-.91-1.88 3.43-1.68 4.1-5.69 1 2.07zM299.24 683.17l6-5.6-.04-.06q-2.09 1.17-2.8 1.52l-4.18 2.04-.84-1.7 8.99-4.39 1.26 2.6-5.83 5.47.02.04 7.97-1.1 1.26 2.6-8.98 4.38-.86-1.78 4.25-2.07.7-.33 2.12-.94-.02-.05-8.17 1.11zM311.66 697.18a5.43 5.43 0 0 1-3.97.57 5.33 5.33 0 0 1-3.1-6.34 5.44 5.44 0 0 1 2.9-2.78 5.37 5.37 0 0 1 3.97-.57 4.61 4.61 0 0 1 2.74 2.6 4.55 4.55 0 0 1 .35 3.75 5.44 5.44 0 0 1-2.9 2.77zm-3.2-6.55a4.17 4.17 0 0 0-1.99 1.68 2.22 2.22 0 0 0 .07 2.08q1.12 2.28 4.14.8 3.04-1.48 1.93-3.75a2.24 2.24 0 0 0-1.6-1.34 4.16 4.16 0 0 0-2.55.53zM311.95 709.21l-1.18-2.42 4.89-7.22-.03-.06q-1.74 1-2.5 1.37l-4.24 2.06-.83-1.7 8.99-4.38 1.17 2.4-4.82 7.19.02.04q1.7-.95 2.43-1.3l4.25-2.08.84 1.72zM689.72 412.4l-6.32-3.92.72-1.17 7.7-3.32-3.97-2.45.93-1.49 6.1 3.78-.72 1.16-7.7 3.33 4.19 2.59zM694.25 415.2l-3.86-2.39.63-1.02 1.33.16 3.41-5.5-.74-1.11.64-1.02 3.86 2.39-.63 1.02-1.33-.16-3.41 5.5.74 1.11zM699.3 418.33l2.09-7.93-.05-.03q-1.15 2.1-1.57 2.78l-2.45 3.95-1.61-1 5.26-8.49 2.45 1.52-2.01 7.74.03.02 6.16-5.17 2.45 1.52-5.26 8.5-1.68-1.04 2.5-4.03c.1-.19.25-.4.4-.65s.6-.88 1.31-1.92l-.05-.04-6.32 5.3zM712.13 426.28l.63-2.4-3.1-1.92-1.86 1.64-1.94-1.2 8.28-6.67 2.2 1.36-2.27 10.4zm1.14-4.18l.97-3.7c.07-.29.14-.5.2-.67q-.66.63-3.38 3zM723.04 423.2a2.16 2.16 0 0 0-2.05-.22 4.19 4.19 0 0 0-1.88 1.79q-1.76 2.84.38 4.16a7.94 7.94 0 0 0 2.44.9l-.94 1.5a7.08 7.08 0 0 1-2.6-1 4.2 4.2 0 0 1-2.14-2.89 5.6 5.6 0 0 1 1.02-3.83 6.2 6.2 0 0 1 1.92-2.02 4.09 4.09 0 0 1 2.33-.67 4.82 4.82 0 0 1 2.45.78 6.73 6.73 0 0 1 2.11 2.14l-1.48 1.1a11.46 11.46 0 0 0-.72-.99 3.35 3.35 0 0 0-.84-.75zM729.56 437.1l-1.8-1.12 2.28-3.67-3.36-2.08-2.28 3.66-1.8-1.11 5.27-8.5 1.8 1.12-2.06 3.33 3.36 2.08 2.06-3.33 1.8 1.12zM1270.46 436.96a6.32 6.32 0 0 1-3-.34 3.81 3.81 0 0 1-1.92-1.66l-2.44 2.66-.26-2.7 2.05-2.04-.01-.16a4.56 4.56 0 0 1 .98-3.64 5.44 5.44 0 0 1 3.7-1.6 5.37 5.37 0 0 1 3.9.86 4.61 4.61 0 0 1 1.66 3.4 4.55 4.55 0 0 1-.98 3.63 5.43 5.43 0 0 1-3.68 1.59zm-.7-7.26a4.17 4.17 0 0 0-2.46.87 2.22 2.22 0 0 0-.66 1.98q.25 2.52 3.6 2.2 3.37-.33 3.12-2.84a2.24 2.24 0 0 0-1.03-1.82 4.16 4.16 0 0 0-2.58-.4zM1276.4 446.63l-6.43.63a3.72 3.72 0 0 1-1.98-.3 3.22 3.22 0 0 1-1.4-1.3 5.13 5.13 0 0 1-.67-2.17 4.25 4.25 0 0 1 .7-3.08 3.5 3.5 0 0 1 2.59-1.32l6.4-.62.21 2.1-6.1.6a2.56 2.56 0 0 0-1.63.62 1.93 1.93 0 0 0-.4 1.58 1.88 1.88 0 0 0 .7 1.45 2.57 2.57 0 0 0 1.74.3l6.07-.6zM1267.06 453.76l-.44-4.53 1.2-.11.67 1.15 6.44-.62.44-1.27 1.2-.12.44 4.53-1.2.12-.68-1.16-6.43.62-.44 1.27zM1275.97 458.87a2.16 2.16 0 0 0-1.07-1.75 4.19 4.19 0 0 0-2.56-.42q-3.33.33-3.08 2.83a7.94 7.94 0 0 0 .77 2.48l-1.77.17a7.07 7.07 0 0 1-.78-2.68 4.2 4.2 0 0 1 1-3.45 5.61 5.61 0 0 1 3.66-1.52 6.2 6.2 0 0 1 2.77.3 4.1 4.1 0 0 1 1.95 1.45 4.81 4.81 0 0 1 .87 2.42 6.72 6.72 0 0 1-.42 2.98l-1.78-.51a11.5 11.5 0 0 0 .35-1.17 3.35 3.35 0 0 0 .1-1.13zM1268.87 472.34l-.23-2.4 3.93-3.01-.72-.83-3.56.35-.2-2.11 9.95-.97.2 2.1-4.55.45 1.25.72 3.65 2.36.22 2.34-4.74-3.04zM883.99 1394.37l-2.38-.72-2.03 3.03 1.58 1.92-1.27 1.9-6.38-8.51 1.44-2.15 10.3 2.63zm-4.14-1.29l-3.67-1.09-.66-.22q.6.67 2.88 3.48zM887.83 1388.62l-1.17 1.76-6.84-4.57-1.51 2.25-1.47-.98 4.2-6.27 1.46.98-1.5 2.26zM888.19 1381.2l3.19 2.13-1.18 1.76-8.3-5.56 1.61-2.42a4.98 4.98 0 0 1 2.3-2.1 2.96 2.96 0 0 1 3.44 1.72 3.2 3.2 0 0 1 .14 1.74l5.25-.02-1.3 1.96-4.52-.15zm-1.43-.96l.38-.57a2.63 2.63 0 0 0 .55-1.42 1.2 1.2 0 0 0-.61-.98 1.1 1.1 0 0 0-1.12-.16 2.97 2.97 0 0 0-1.09 1.1l-.36.53zM898.54 1372.62l-3.2 4.79-8.3-5.56 3.2-4.78 1.44.96-2.03 3.02 1.83 1.22 1.88-2.8 1.44.96-1.88 2.81 2.14 1.43 2.03-3.02zM901.78 1367.78l-2.53 3.78-1-.67.21-1.32-5.37-3.6-1.15.7-1-.67 2.53-3.77 1 .66-.2 1.33 5.37 3.6 1.14-.7zM1311.2 1078.59l3.06-.57a6 6 0 0 1 3.15.04 2.1 2.1 0 0 1 1.29 1.72 2.42 2.42 0 0 1-.15 1.52 1.68 1.68 0 0 1-.97.88v.07a2.2 2.2 0 0 1 1.5.53 2.58 2.58 0 0 1 .7 1.45 2.54 2.54 0 0 1-.6 2.27 4.27 4.27 0 0 1-2.5 1.24l-3.67.68zm2.8 3.5l1.21-.22a2.25 2.25 0 0 0 1.18-.48 1 1 0 0 0 .22-.94.88.88 0 0 0-.56-.73 2.7 2.7 0 0 0-1.35-.01l-1.1.2zm.3 1.66l.48 2.56 1.35-.25a2.05 2.05 0 0 0 1.22-.56 1.24 1.24 0 0 0 .22-1.08q-.23-1.23-1.97-.9zM1328.45 1075.42l1.17 6.36a3.73 3.73 0 0 1-.13 2 3.23 3.23 0 0 1-1.18 1.51 5.11 5.11 0 0 1-2.1.84 4.24 4.24 0 0 1-3.12-.43 3.5 3.5 0 0 1-1.54-2.47l-1.16-6.33 2.07-.38 1.11 6.01a2.56 2.56 0 0 0 .76 1.59 1.93 1.93 0 0 0 1.61.25 1.89 1.89 0 0 0 1.39-.8 2.58 2.58 0 0 0 .15-1.77l-1.1-6zM1334.72 1084.43l-2.05.37-1.8-9.83 5.63-1.03.3 1.7-3.57.67.46 2.53 3.34-.61.3 1.7-3.33.61zM1342.27 1083.04l-2.05.37-1.8-9.82 5.63-1.04.32 1.7-3.59.67.47 2.53 3.33-.61.32 1.7-3.34.61zM1349.78 1075.68l1.3-4.42 2.25-.42-2.16 6.6.7 3.83-2.06.38-.7-3.75-4.37-5.48 2.26-.41zM1285.16 1030.37l-1.7-9.85 2.09-.36 1.4 8.12 4-.69.3 1.73zM1298.62 1028.04l-5.67.98-1.7-9.85 5.67-.98.3 1.72-3.59.61.38 2.17 3.33-.58.3 1.71-3.34.58.44 2.54 3.59-.62zM1308.64 1026.31l-2.38.41-2.94-3.33-1.64 4.13-2.24.38 2.39-5.64-3.88-4.24 2.3-.4 2.73 3.18 1.47-3.9 2.25-.4-2.24 5.42zM1317.95 1024.7l-2.08.36-.74-4.25-3.9.67.74 4.26-2.09.36-1.7-9.85 2.09-.36.66 3.86 3.9-.68-.66-3.86 2.08-.36zM1326.46 1023.23l-1.11-2.22-3.6.62-.3 2.47-2.25.39 1.76-10.5 2.56-.43 5.2 9.28zm-1.92-3.89l-1.73-3.4q-.2-.4-.3-.64-.07.9-.53 4.49zM1338.7 1021.12l-2.66.45-5.58-6.7h-.06q.47 1.96.62 2.8l.8 4.63-1.87.33-1.7-9.85 2.64-.46 5.55 6.64h.04q-.43-1.91-.57-2.7l-.8-4.67 1.88-.32zM1348.47 1014.26a4.92 4.92 0 0 1-.74 3.96 5.73 5.73 0 0 1-3.77 1.98l-2.79.49-1.7-9.85 3.09-.54a5.29 5.29 0 0 1 3.96.63 4.75 4.75 0 0 1 1.95 3.33zm-2.16.42q-.55-3.17-3.35-2.68l-1.1.19 1.1 6.41.9-.15q3.01-.53 2.45-3.77zM1352.82 1014.78l.65 3.78-2.09.36-1.7-9.85 2.87-.5a4.98 4.98 0 0 1 3.1.22 2.96 2.96 0 0 1 1.13 3.69 3.21 3.21 0 0 1-1.17 1.3l3.64 3.78-2.32.4-3-3.37zm-.3-1.7l.68-.11a2.62 2.62 0 0 0 1.4-.59 1.2 1.2 0 0 0 .3-1.11 1.1 1.1 0 0 0-.66-.92 2.95 2.95 0 0 0-1.54-.04l-.64.11zM1364.17 1016.7l-4.48.78-.2-1.18 1.1-.76-1.1-6.37-1.3-.35-.2-1.18 4.48-.78.2 1.19-1.1.76 1.1 6.37 1.3.34zM1371.89 1015.38l-1.12-2.22-3.6.62-.3 2.46-2.25.4 1.76-10.5 2.56-.44 5.2 9.29zm-1.92-3.89q-1.55-3.01-1.74-3.41a9.83 9.83 0 0 1-.3-.63q-.07.9-.53 4.48zM492.74 1316.65l-.5-2.64 6.62-5.67v-.07q-1.95.5-2.79.66l-4.62.87-.35-1.86 9.82-1.85.5 2.63-6.56 5.65.01.05q1.9-.46 2.69-.61l4.65-.88.35 1.87zM499.81 1327.11a5.42 5.42 0 0 1-3.98-.5 5.33 5.33 0 0 1-1.3-6.93 5.44 5.44 0 0 1 3.53-1.92 5.37 5.37 0 0 1 3.97.5 4.62 4.62 0 0 1 1.95 3.24 4.55 4.55 0 0 1-.65 3.7 5.44 5.44 0 0 1-3.52 1.91zm-1.35-7.17a4.17 4.17 0 0 0-2.36 1.1 2.22 2.22 0 0 0-.48 2.02q.47 2.5 3.78 1.87 3.32-.63 2.85-3.1a2.24 2.24 0 0 0-1.2-1.72 4.16 4.16 0 0 0-2.6-.17zM506.13 1333.76l.4 2.1-10.45-1.48-.43-2.28 9.2-5.18.4 2.1-5.5 2.95q-.5.26-1.15.55t-.92.39a17.63 17.63 0 0 1 2.26.1zM498.02 1344.7l2.2-1.16-.67-3.58-2.47-.27-.42-2.24 10.51 1.6.48 2.55-9.2 5.34zm3.86-1.98l3.39-1.8q.39-.2.62-.3-.9-.06-4.5-.46zM1349.02 281.79l-1.99-.63 3-9.53 5.47 1.72-.52 1.65-3.48-1.09-.77 2.46 3.23 1.02-.52 1.65-3.23-1.02zM1354.36 283.47l3-9.54 2.02.64-2.47 7.86 3.86 1.22-.52 1.67zM1367.74 287.68l.03-2.49-3.48-1.1-1.4 2.06-2.18-.68 6.37-8.52 2.48.78.36 10.64zm.08-4.33q0-3.4.02-3.83t.02-.7q-.47.77-2.53 3.74zM1378.79 291.16l-2.3-.73-1.23-4.8-1.05.35-1.07 3.4-2.02-.64 3-9.53 2.02.64-1.37 4.36 1.15-.87 3.6-2.43 2.24.7-4.65 3.18zM1385.48 293.26l-5.5-1.73 3-9.53 5.5 1.73-.52 1.66-3.47-1.1-.66 2.1 3.23 1.01-.52 1.66-3.23-1.02-.78 2.46 3.47 1.1zM1028.56 176.5l7.7-2.81v-.06q-2.38.25-3.18.29l-4.64.24-.1-1.9 9.98-.5.15 2.88-7.51 2.75v.04l7.76 2.11.15 2.89-9.98.5-.1-1.97 4.72-.24.77-.03 2.33-.02v-.07l-7.95-2.17zM1039.41 193.06l-6.46.33a3.73 3.73 0 0 1-1.96-.4 3.22 3.22 0 0 1-1.35-1.36 5.13 5.13 0 0 1-.56-2.19 4.24 4.24 0 0 1 .84-3.04 3.5 3.5 0 0 1 2.64-1.2l6.43-.33.11 2.11-6.1.31a2.56 2.56 0 0 0-1.68.55 1.94 1.94 0 0 0-.46 1.57 1.89 1.89 0 0 0 .62 1.47 2.58 2.58 0 0 0 1.73.38l6.1-.3zM1032.63 201.77a2.58 2.58 0 0 1-2.18-.87 4.23 4.23 0 0 1-.92-2.66 6.36 6.36 0 0 1 .46-2.86l1.96-.1a11.67 11.67 0 0 0-.54 1.74 5.05 5.05 0 0 0-.12 1.29 1.82 1.82 0 0 0 .32 1.06.91.91 0 0 0 .81.33.88.88 0 0 0 .51-.2 1.82 1.82 0 0 0 .42-.5 12.4 12.4 0 0 0 .61-1.33 6.17 6.17 0 0 1 .76-1.41 3.1 3.1 0 0 1 .88-.78 2.63 2.63 0 0 1 1.22-.33 2.58 2.58 0 0 1 2.12.79 3.74 3.74 0 0 1 .89 2.44 5.86 5.86 0 0 1-.11 1.5 10.17 10.17 0 0 1-.44 1.5l-1.68-.6a9.92 9.92 0 0 0 .39-1.34 4.26 4.26 0 0 0 .07-1.04 1.36 1.36 0 0 0-.32-.9.92.92 0 0 0-.75-.29.91.91 0 0 0-.48.16 1.43 1.43 0 0 0-.38.43 12.82 12.82 0 0 0-.63 1.38 5.36 5.36 0 0 1-1.25 1.98 2.62 2.62 0 0 1-1.62.6zM1030.15 207.57l-.11-2.12 8.22-.42-.14-2.7 1.76-.1.39 7.54-1.76.09-.14-2.71zM1182.92 603.37l-2.07.25-1.24-9.91 5.69-.71.21 1.72-3.61.45.32 2.56 3.36-.42.22 1.71-3.37.42zM1192.19 602.2l-4.51.57-.15-1.2 1.14-.7-.8-6.42-1.28-.4-.15-1.2 4.5-.56.16 1.2-1.14.7.8 6.42 1.28.4zM1200.35 601.19l-7.38.92-.17-1.36 3.9-7.41-4.63.57-.21-1.73 7.12-.9.17 1.36-3.9 7.42 4.88-.6zM1208.4 600.18l-7.39.93-.17-1.37 3.9-7.4-4.62.57-.22-1.74 7.12-.89.17 1.36-3.9 7.42 4.89-.61zM146.79 1302.35l-2.03-.64 2.48-7.85-2.59-.82.53-1.68 7.2 2.27-.53 1.68-2.59-.81zM160.87 1301.53a5.42 5.42 0 0 1-2.32 3.27 5.33 5.33 0 0 1-6.73-2.12 5.45 5.45 0 0 1-.02-4.02 5.37 5.37 0 0 1 2.32-3.26 4.62 4.62 0 0 1 3.77-.2 4.55 4.55 0 0 1 2.96 2.33 5.43 5.43 0 0 1 .02 4zm-6.96-2.19a4.17 4.17 0 0 0-.15 2.6 2.22 2.22 0 0 0 1.56 1.38q2.42.76 3.43-2.45 1.02-3.22-1.39-3.98a2.24 2.24 0 0 0-2.07.24 4.15 4.15 0 0 0-1.38 2.21zM164.51 1303.92l-1.15 3.65-2.02-.63 3-9.53 2.78.87a4.99 4.99 0 0 1 2.65 1.62 2.96 2.96 0 0 1-.68 3.79 3.2 3.2 0 0 1-1.63.61l1.5 5.04-2.25-.71-1.12-4.37zm.52-1.65l.65.2a2.6 2.6 0 0 0 1.52.14 1.2 1.2 0 0 0 .77-.86 1.1 1.1 0 0 0-.16-1.12 2.96 2.96 0 0 0-1.36-.74l-.6-.2z"/><path class="cls-17" d="M175.99 1311.56l.02-2.49-3.47-1.1-1.41 2.05-2.18-.68 6.38-8.51 2.48.78.35 10.63zm.07-4.34l.02-3.83c0-.3.02-.52.03-.69q-.47.77-2.53 3.74z"/></g><path class="cls-19" d="M603.27 172.8a2.16 2.16 0 0 0 .18 2.05 4.18 4.18 0 0 0 2.11 1.5q3.12 1.2 4.02-1.15a7.95 7.95 0 0 0 .42-2.57l1.66.64a7.08 7.08 0 0 1-.5 2.75 4.19 4.19 0 0 1-2.43 2.64 5.6 5.6 0 0 1-3.96-.27 6.19 6.19 0 0 1-2.35-1.5 4.11 4.11 0 0 1-1.1-2.17 4.82 4.82 0 0 1 .3-2.55 6.74 6.74 0 0 1 1.7-2.48l1.37 1.25a11.48 11.48 0 0 0-.83.89 3.38 3.38 0 0 0-.59.97zM614.95 165.7l-2.48-.17-1.3 3.4 1.96 1.53-.81 2.13-8.12-6.87.93-2.42 10.63.27zm-4.32-.33l-3.82-.25-.7-.07q.75.52 3.59 2.75zM619.38 154.11l-.96 2.52-8.62 1.36-.02.06q1.92.6 2.72.9l4.39 1.67-.68 1.77-9.33-3.56.95-2.5 8.54-1.38.02-.05q-1.86-.6-2.61-.89l-4.42-1.68.68-1.79zM621.65 148.16l-.75 1.98-7.7-2.94-.96 2.54-1.65-.63 2.7-7.05 1.64.63-.97 2.53zM621.68 134.05a5.42 5.42 0 0 1 3.12 2.51 5.33 5.33 0 0 1-2.52 6.6 5.45 5.45 0 0 1-4.01-.22 5.37 5.37 0 0 1-3.12-2.52 4.62 4.62 0 0 1 .03-3.77 4.55 4.55 0 0 1 2.5-2.82 5.44 5.44 0 0 1 4 .22zm-2.6 6.82a4.17 4.17 0 0 0 2.58.3 2.22 2.22 0 0 0 1.47-1.47q.9-2.37-2.25-3.57-3.15-1.2-4.05 1.15a2.24 2.24 0 0 0 .11 2.09 4.16 4.16 0 0 0 2.13 1.5zM630.26 125.62l-.96 2.52-8.62 1.36-.02.06q1.92.6 2.72.9l4.4 1.68-.68 1.77-9.34-3.57.95-2.5 8.55-1.38.01-.05q-1.85-.6-2.6-.88l-4.43-1.7.69-1.77zM213.18 1168.08l1.87-1.64-1.5-3.32-2.47.32-.93-2.09 10.6-.9 1.06 2.36-7.7 7.35zm3.28-2.83l2.87-2.53q.33-.3.54-.44-.9.15-4.48.6zM218.27 1179.4l-1.1-2.47 5.1-7.06-.02-.06q-1.77.94-2.55 1.3l-4.3 1.92-.77-1.72 9.11-4.1 1.1 2.43-5.04 7.03.02.05q1.73-.9 2.47-1.23l4.31-1.94.78 1.74zM220.89 1185.2l-.87-1.93 7.5-3.38-1.11-2.48 1.6-.72 3.1 6.88-1.6.72-1.12-2.47zM224.17 1192.49l-1.87-4.15 1.1-.5 1.01.89 5.9-2.66v-1.34l1.1-.5 1.87 4.15-1.1.5-1-.88-5.9 2.65-.01 1.34zM226.61 1197.9l6.16-5.41-.02-.06q-2.13 1.1-2.86 1.43l-4.24 1.91-.78-1.73 9.11-4.1 1.19 2.63-6 5.3.02.03 8-.85 1.18 2.63-9.1 4.1-.82-1.8 4.31-1.94q.3-.14.71-.3t2.16-.88l-.03-.05-8.2.86zM513.4 576.98l-.4-2.08 8.09-1.55-.52-2.67 1.74-.33 1.42 7.41-1.73.34-.51-2.67zM525.55 587.26l-6.35 1.22a3.73 3.73 0 0 1-2-.12 3.22 3.22 0 0 1-1.52-1.17 5.11 5.11 0 0 1-.86-2.09 4.24 4.24 0 0 1 .4-3.12 3.5 3.5 0 0 1 2.46-1.56l6.33-1.21.4 2.07-6.01 1.15a2.57 2.57 0 0 0-1.58.78 1.93 1.93 0 0 0-.24 1.61 1.89 1.89 0 0 0 .82 1.38 2.58 2.58 0 0 0 1.76.14l6-1.15zM520.36 592.9l-3.76.73-.4-2.08 9.81-1.88.55 2.86a4.98 4.98 0 0 1-.16 3.1 2.96 2.96 0 0 1-3.66 1.2 3.2 3.2 0 0 1-1.32-1.15l-3.72 3.71-.44-2.31 3.32-3.07zm1.7-.32l.12.67a2.62 2.62 0 0 0 .61 1.4 1.2 1.2 0 0 0 1.13.27 1.1 1.1 0 0 0 .9-.67 2.96 2.96 0 0 0 0-1.54l-.11-.64zM519.6 609.33l-.5-2.64 6.6-5.7v-.06q-1.95.5-2.79.67l-4.61.88-.36-1.85 9.81-1.89.5 2.63-6.53 5.67.01.05q1.9-.47 2.69-.62l4.65-.9.35 1.88zM520.79 615.48l-.86-4.47 1.18-.23.78 1.1 6.35-1.22.33-1.3 1.18-.23.85 4.46-1.18.23-.78-1.09-6.35 1.22-.32 1.3zM529.16 622.64a3.06 3.06 0 0 1-2.61-.53 4.31 4.31 0 0 1-1.38-2.65l-.17-.9-3.5.68-.39-2.09 9.82-1.88.6 3.14a4.24 4.24 0 0 1-.25 2.86 2.86 2.86 0 0 1-2.12 1.37zm-2.45-4.4l.13.68a2.32 2.32 0 0 0 .65 1.37 1.35 1.35 0 0 0 1.2.26 1.39 1.39 0 0 0 1-.6 1.9 1.9 0 0 0 .11-1.32l-.18-.95zM526.6 631.06a2.58 2.58 0 0 1-2.27-.56 4.23 4.23 0 0 1-1.28-2.51 6.38 6.38 0 0 1 .06-2.9l1.93-.37a11.62 11.62 0 0 0-.3 1.8 5.08 5.08 0 0 0 .06 1.3 1.83 1.83 0 0 0 .46 1 .92.92 0 0 0 .85.22.88.88 0 0 0 .48-.26 1.84 1.84 0 0 0 .35-.56 12.62 12.62 0 0 0 .42-1.4 6.1 6.1 0 0 1 .55-1.5 3.12 3.12 0 0 1 .77-.9 2.64 2.64 0 0 1 1.15-.5 2.58 2.58 0 0 1 2.22.5 3.73 3.73 0 0 1 1.22 2.29 5.87 5.87 0 0 1 .1 1.5 10.23 10.23 0 0 1-.24 1.55l-1.74-.36a9.95 9.95 0 0 0 .2-1.39 4.23 4.23 0 0 0-.07-1.03 1.36 1.36 0 0 0-.45-.86.92.92 0 0 0-.78-.18.9.9 0 0 0-.45.22 1.42 1.42 0 0 0-.32.49 12.79 12.79 0 0 0-.44 1.45 5.35 5.35 0 0 1-.95 2.14 2.63 2.63 0 0 1-1.53.82zM525.73 641.26l-.45-2.37 3.64-3.36-.8-.76-3.5.67-.4-2.08 9.81-1.88.4 2.08-4.49.86 1.31.6 3.85 2.02.44 2.3-5-2.58zM526.67 646.16l-.85-4.46 1.18-.23.78 1.1 6.35-1.23.32-1.3 1.18-.22.86 4.46-1.18.23-.78-1.1-6.35 1.23-.32 1.3zM146.13 274.71a4.92 4.92 0 0 1-3.5 2.02 5.73 5.73 0 0 1-3.96-1.58l-2.18-1.8 6.37-7.7 2.42 2a5.28 5.28 0 0 1 2.1 3.42 4.75 4.75 0 0 1-1.25 3.64zm-1.73-1.36q2.05-2.48-.14-4.3l-.87-.71-4.15 5.01.7.58q2.36 1.95 4.46-.58zM147.36 282.34l-3.5-2.9.76-.93 1.3.35 4.12-4.99-.58-1.2.77-.93 3.5 2.9-.77.92-1.3-.34-4.11 4.98.58 1.21zM151.94 286.12l3.14-7.57-.05-.04q-1.42 1.92-1.93 2.54l-2.96 3.58-1.46-1.2 6.37-7.7 2.22 1.83-3.05 7.4.03.03 6.8-4.3 2.23 1.84-6.37 7.7-1.52-1.25 3.01-3.65.5-.59 1.56-1.73-.05-.04-6.97 4.39zM163.29 295.5l-4.44-3.66 6.37-7.7 4.44 3.66-1.11 1.34-2.8-2.32-1.4 1.7 2.6 2.15-1.1 1.34-2.6-2.16-1.65 1.99 2.8 2.32zM171.21 298.45a2.58 2.58 0 0 1-2.1 1.03 4.23 4.23 0 0 1-2.6-1.13 6.37 6.37 0 0 1-1.8-2.27l1.26-1.51a11.58 11.58 0 0 0 .92 1.58 5.04 5.04 0 0 0 .87.96 1.82 1.82 0 0 0 1 .47.91.91 0 0 0 .78-.37.88.88 0 0 0 .21-.5 1.83 1.83 0 0 0-.09-.66 12.46 12.46 0 0 0-.57-1.34 6.12 6.12 0 0 1-.53-1.52 3.1 3.1 0 0 1 .03-1.17 2.64 2.64 0 0 1 .57-1.13 2.58 2.58 0 0 1 2.02-1.03 3.73 3.73 0 0 1 2.4 1 5.9 5.9 0 0 1 1.03 1.09 10.28 10.28 0 0 1 .8 1.34l-1.57.84a9.93 9.93 0 0 0-.73-1.2 4.24 4.24 0 0 0-.7-.76 1.36 1.36 0 0 0-.9-.37.93.93 0 0 0-.71.36.91.91 0 0 0-.21.46 1.43 1.43 0 0 0 .06.58 12.73 12.73 0 0 0 .59 1.4 5.36 5.36 0 0 1 .62 2.25 2.63 2.63 0 0 1-.65 1.6zM897.6 1179.6a5.42 5.42 0 0 1-4 .31 5.33 5.33 0 0 1-2.69-6.52 5.44 5.44 0 0 1 3.07-2.6 5.37 5.37 0 0 1 4-.3 4.62 4.62 0 0 1 2.56 2.76 4.55 4.55 0 0 1 .12 3.77 5.43 5.43 0 0 1-3.06 2.58zm-2.79-6.75a4.17 4.17 0 0 0-2.08 1.55 2.22 2.22 0 0 0-.06 2.08q.96 2.35 4.08 1.06 3.12-1.28 2.16-3.62a2.24 2.24 0 0 0-1.51-1.43 4.16 4.16 0 0 0-2.59.36zM898.57 1187.82a2.59 2.59 0 0 1-2.34-.09 4.24 4.24 0 0 1-1.76-2.2 6.37 6.37 0 0 1-.52-2.85l1.82-.75a11.7 11.7 0 0 0 .06 1.82 5.07 5.07 0 0 0 .32 1.26 1.82 1.82 0 0 0 .66.88.91.91 0 0 0 .87.05.87.87 0 0 0 .42-.35 1.82 1.82 0 0 0 .23-.62 12.42 12.42 0 0 0 .13-1.45 6.14 6.14 0 0 1 .24-1.59 3.1 3.1 0 0 1 .57-1.03 2.63 2.63 0 0 1 1.04-.72 2.58 2.58 0 0 1 2.27.04 3.74 3.74 0 0 1 1.65 2 5.9 5.9 0 0 1 .4 1.45 10.22 10.22 0 0 1 .08 1.57h-1.79a9.86 9.86 0 0 0-.08-1.4 4.27 4.27 0 0 0-.27-1 1.36 1.36 0 0 0-.61-.75.93.93 0 0 0-.8-.02.9.9 0 0 0-.4.3 1.43 1.43 0 0 0-.22.54 12.82 12.82 0 0 0-.13 1.51 5.34 5.34 0 0 1-.51 2.29 2.63 2.63 0 0 1-1.33 1.1zM898.12 1194l-1.73-4.2 1.1-.45 1 .9 5.97-2.46.05-1.34 1.12-.46 1.73 4.2-1.11.47-.99-.92-5.97 2.47-.06 1.34zM903.12 1196.09l-3.54 1.46-.8-1.96 9.23-3.81 1.11 2.69a4.98 4.98 0 0 1 .46 3.07 2.96 2.96 0 0 1-3.34 1.91 3.21 3.21 0 0 1-1.52-.86l-2.9 4.38-.9-2.17 2.63-3.67zm1.6-.66l.26.63a2.63 2.63 0 0 0 .87 1.24 1.2 1.2 0 0 0 1.16.05 1.1 1.1 0 0 0 .75-.84 2.96 2.96 0 0 0-.3-1.52l-.25-.6zM903.72 1207.59l-1.73-4.2 1.11-.46.98.9 5.98-2.46.06-1.34 1.1-.45 1.74 4.2-1.11.46-.98-.91-5.98 2.46-.06 1.34zM909.19 1213.56a2.58 2.58 0 0 1-2.35-.08 4.23 4.23 0 0 1-1.75-2.21 6.37 6.37 0 0 1-.52-2.85l1.82-.75a11.64 11.64 0 0 0 .06 1.83 5.1 5.1 0 0 0 .32 1.25 1.82 1.82 0 0 0 .66.89.91.91 0 0 0 .87.04.87.87 0 0 0 .42-.35 1.83 1.83 0 0 0 .23-.61 12.57 12.57 0 0 0 .13-1.46 6.14 6.14 0 0 1 .24-1.58 3.1 3.1 0 0 1 .57-1.03 2.63 2.63 0 0 1 1.03-.72 2.58 2.58 0 0 1 2.28.03 3.74 3.74 0 0 1 1.64 2.01 5.88 5.88 0 0 1 .4 1.45 10.21 10.21 0 0 1 .08 1.56h-1.78a9.95 9.95 0 0 0-.08-1.4 4.24 4.24 0 0 0-.27-1 1.36 1.36 0 0 0-.61-.75.92.92 0 0 0-.8-.02.9.9 0 0 0-.4.31 1.43 1.43 0 0 0-.22.54 12.77 12.77 0 0 0-.14 1.5 5.35 5.35 0 0 1-.5 2.3 2.62 2.62 0 0 1-1.33 1.1zM612.76 959.34a2.59 2.59 0 0 1-1.16 2.03 4.23 4.23 0 0 1-2.77.54 6.36 6.36 0 0 1-2.76-.85l.17-1.96a11.6 11.6 0 0 0 1.65.78 5.05 5.05 0 0 0 1.26.3 1.82 1.82 0 0 0 1.1-.17.91.91 0 0 0 .43-.76.87.87 0 0 0-.11-.53 1.82 1.82 0 0 0-.44-.49 12.32 12.32 0 0 0-1.23-.78 6.15 6.15 0 0 1-1.3-.95 3.11 3.11 0 0 1-.65-.98 2.65 2.65 0 0 1-.16-1.25 2.58 2.58 0 0 1 1.08-2 3.74 3.74 0 0 1 2.55-.54 5.88 5.88 0 0 1 1.46.32 10.24 10.24 0 0 1 1.43.65l-.83 1.58a9.95 9.95 0 0 0-1.28-.57 4.27 4.27 0 0 0-1-.23 1.36 1.36 0 0 0-.95.2.92.92 0 0 0-.39.7.9.9 0 0 0 .09.5 1.43 1.43 0 0 0 .37.44 12.87 12.87 0 0 0 1.28.82 5.32 5.32 0 0 1 1.8 1.5 2.62 2.62 0 0 1 .36 1.7zM617.94 956.68l2.44-3.91 2.28.2-3.85 5.79-.34 3.87-2.1-.19.34-3.8-2.75-6.45 2.28.2zM631.85 963.83l-2.68-.24-3.66-7.92h-.06q-.05 2-.12 2.85l-.42 4.69-1.89-.17.9-9.95 2.65.23 3.66 7.85h.05q.07-1.95.14-2.75l.42-4.71 1.9.17zM643.84 959.87a5.43 5.43 0 0 1-1.57 3.69 5.33 5.33 0 0 1-7.02-.63 5.45 5.45 0 0 1-.89-3.92 5.37 5.37 0 0 1 1.57-3.69 4.61 4.61 0 0 1 3.64-1 4.55 4.55 0 0 1 3.4 1.64 5.44 5.44 0 0 1 .87 3.91zm-7.27-.65a4.17 4.17 0 0 0 .41 2.57 2.22 2.22 0 0 0 1.82 1.01q2.53.23 2.83-3.13.3-3.36-2.22-3.59a2.24 2.24 0 0 0-1.97.68 4.16 4.16 0 0 0-.87 2.46zM651.96 955.6l2.13.18-4.28 9.65-2.3-.2-2.49-10.26 2.14.2 1.34 6.08.21 1.26c.07.47.11.8.12.98a17.63 17.63 0 0 1 .71-2.14zM788.34 1067.6a2.58 2.58 0 0 1-2.34-.09 4.24 4.24 0 0 1-1.74-2.22 6.36 6.36 0 0 1-.52-2.84l1.83-.75a11.55 11.55 0 0 0 .05 1.83 5.07 5.07 0 0 0 .32 1.26 1.83 1.83 0 0 0 .65.89.91.91 0 0 0 .87.04.87.87 0 0 0 .42-.35 1.82 1.82 0 0 0 .23-.6 12.57 12.57 0 0 0 .14-1.46 6.17 6.17 0 0 1 .25-1.59 3.14 3.14 0 0 1 .58-1.03 2.65 2.65 0 0 1 1.03-.71 2.58 2.58 0 0 1 2.27.04 3.74 3.74 0 0 1 1.64 2.02 5.86 5.86 0 0 1 .4 1.45 10.31 10.31 0 0 1 .07 1.56l-1.78-.01a10.07 10.07 0 0 0-.08-1.4 4.25 4.25 0 0 0-.27-1 1.36 1.36 0 0 0-.6-.75.92.92 0 0 0-.8-.02.9.9 0 0 0-.4.3 1.41 1.41 0 0 0-.22.54 12.72 12.72 0 0 0-.15 1.5 5.35 5.35 0 0 1-.51 2.3 2.63 2.63 0 0 1-1.34 1.1zM787.91 1073.9l-.8-1.96 7.62-3.1-1.02-2.52 1.63-.66 2.85 6.99-1.63.66-1.03-2.51zM791.69 1083.17l-2.17-5.33 9.25-3.77 2.17 5.33-1.6.66-1.38-3.37-2.03.83 1.28 3.13-1.61.65-1.28-3.13-2.38.97 1.37 3.37zM793.93 1088.67l-.8-1.96 7.62-3.1-1.02-2.52 1.63-.66 2.85 6.99-1.64.66-1.02-2.51zM796.94 1096.07l-1.71-4.2 1.11-.46.98.92 5.99-2.45.06-1.33 1.11-.46 1.72 4.21-1.11.46-.98-.92-6 2.44-.05 1.34zM801.94 1098.17l-3.55 1.45-.8-1.96 9.25-3.77 1.1 2.7a4.99 4.99 0 0 1 .45 3.06 2.96 2.96 0 0 1-3.35 1.9 3.21 3.21 0 0 1-1.51-.87l-2.93 4.37-.89-2.18 2.66-3.65zm1.6-.65l.25.63a2.61 2.61 0 0 0 .87 1.25 1.2 1.2 0 0 0 1.16.05 1.1 1.1 0 0 0 .75-.84 2.97 2.97 0 0 0-.3-1.51l-.23-.6zM296.7 973.57l1.33 3.6-2 .73-3.44-9.39 2.74-1a4.99 4.99 0 0 1 3.08-.34 2.96 2.96 0 0 1 1.78 3.42 3.22 3.22 0 0 1-.92 1.48l4.26 3.07-2.2.81-3.57-2.77zm-.59-1.62l.64-.24a2.6 2.6 0 0 0 1.28-.82 1.19 1.19 0 0 0 .09-1.16 1.1 1.1 0 0 0-.81-.78 2.98 2.98 0 0 0-1.53.24l-.6.22zM310.12 972.73l-5.4 1.98-3.45-9.38 5.4-1.98.6 1.63-3.41 1.25.75 2.06 3.18-1.17.6 1.63-3.18 1.17.89 2.42 3.41-1.25zM320.4 968.96l-2.53.92-6.69-5.6-.06.02q.82 1.84 1.11 2.64l1.62 4.42-1.78.65-3.44-9.38 2.5-.92 6.66 5.53.05-.02q-.77-1.8-1.05-2.55l-1.63-4.44 1.8-.66zM326.27 966.8l-4.27 1.57-.41-1.13.95-.95-2.23-6.07-1.34-.1-.41-1.14 4.27-1.56.41 1.13-.95.94 2.23 6.07 1.33.11zM133 694.18l-1.96.72-3.45-9.39 5.38-1.97.6 1.63-3.42 1.25.89 2.42 3.18-1.16.6 1.62-3.19 1.17zM141.76 690.96l-4.27 1.57-.41-1.13.95-.95-2.23-6.07-1.34-.1-.41-1.14 4.27-1.56.41 1.13-.95.94 2.23 6.07 1.33.11zM149.48 688.13l-6.98 2.56-.48-1.3 2.14-8.1-4.38 1.62-.6-1.65 6.73-2.47.48 1.28-2.13 8.1 4.62-1.69zM157.1 685.33l-7 2.57-.46-1.3 2.13-8.1-4.38 1.61-.6-1.64 6.74-2.47.47 1.28-2.13 8.1 4.62-1.69zM295.83 666.07a4.92 4.92 0 0 1-4.01.4 5.73 5.73 0 0 1-2.96-3.08l-1.24-2.54 8.98-4.39 1.38 2.82a5.29 5.29 0 0 1 .5 3.99 4.75 4.75 0 0 1-2.65 2.8zm-1.01-1.96q2.9-1.41 1.64-3.97l-.5-1.01-5.84 2.85.4.82q1.34 2.75 4.3 1.31zM298.78 670.32l4.62.06 1 2.06-6.94-.3-3.5 1.7-.92-1.9 3.43-1.67 4.1-5.69 1 2.07zM297.82 681.75l6-5.6-.03-.05q-2.1 1.16-2.81 1.51l-4.18 2.04-.83-1.7 8.98-4.38 1.26 2.59-5.83 5.48.02.03 7.97-1.1 1.27 2.6-8.99 4.38-.86-1.77 4.25-2.08.7-.33 2.13-.94-.03-.05-8.16 1.12zM310.24 695.77a5.43 5.43 0 0 1-3.97.56 5.33 5.33 0 0 1-3.1-6.34 5.44 5.44 0 0 1 2.9-2.78 5.37 5.37 0 0 1 3.97-.56 4.61 4.61 0 0 1 2.74 2.6 4.55 4.55 0 0 1 .35 3.75 5.44 5.44 0 0 1-2.89 2.77zm-3.2-6.56a4.17 4.17 0 0 0-1.99 1.68 2.22 2.22 0 0 0 .08 2.08q1.1 2.28 4.14.8 3.03-1.48 1.92-3.75a2.24 2.24 0 0 0-1.6-1.34 4.16 4.16 0 0 0-2.55.53zM310.54 707.8l-1.18-2.43 4.88-7.22-.02-.06q-1.75 1-2.52 1.37l-4.22 2.07-.83-1.7 8.98-4.39 1.17 2.4-4.82 7.19.02.04q1.7-.95 2.43-1.3l4.25-2.07.84 1.7zM688.3 410.98l-6.32-3.92.73-1.17 7.69-3.31-3.96-2.46.92-1.49 6.1 3.78-.72 1.17-7.69 3.32 4.18 2.59zM692.84 413.79l-3.87-2.4.64-1.02 1.33.16 3.4-5.5-.74-1.11.64-1.02 3.86 2.4-.63 1.02-1.33-.17-3.4 5.5.73 1.11zM697.89 416.92l2.08-7.93-.05-.04q-1.15 2.1-1.57 2.78l-2.45 3.96-1.61-1 5.26-8.5 2.46 1.52-2.02 7.75.04.02 6.15-5.18 2.46 1.52-5.27 8.5-1.68-1.04 2.5-4.02c.11-.2.25-.41.4-.65s.6-.9 1.31-1.93l-.05-.03-6.31 5.29zM710.7 424.87l.65-2.4-3.1-1.93-1.87 1.64-1.94-1.2 8.28-6.67 2.2 1.36-2.27 10.4zm1.15-4.18l.97-3.71c.07-.29.14-.5.2-.66q-.66.62-3.38 3zM721.62 421.78a2.16 2.16 0 0 0-2.05-.21 4.19 4.19 0 0 0-1.87 1.78q-1.76 2.84.37 4.16a7.94 7.94 0 0 0 2.44.9l-.93 1.51a7.08 7.08 0 0 1-2.61-1.01 4.2 4.2 0 0 1-2.14-2.88 5.6 5.6 0 0 1 1.02-3.84 6.2 6.2 0 0 1 1.92-2.02 4.09 4.09 0 0 1 2.33-.67 4.82 4.82 0 0 1 2.45.78 6.73 6.73 0 0 1 2.12 2.14l-1.5 1.1a11.46 11.46 0 0 0-.7-.99 3.35 3.35 0 0 0-.85-.75zM728.15 435.67l-1.8-1.1 2.27-3.67-3.36-2.09-2.27 3.67-1.8-1.12 5.26-8.5 1.8 1.12-2.06 3.33 3.36 2.09 2.07-3.33 1.8 1.11zM1269.04 435.54a6.32 6.32 0 0 1-3-.34 3.81 3.81 0 0 1-1.92-1.66l-2.44 2.66-.26-2.7 2.05-2.04-.01-.16a4.56 4.56 0 0 1 .98-3.64 5.44 5.44 0 0 1 3.7-1.6 5.37 5.37 0 0 1 3.9.87 4.61 4.61 0 0 1 1.66 3.39 4.55 4.55 0 0 1-.98 3.63 5.44 5.44 0 0 1-3.68 1.59zm-.7-7.26a4.17 4.17 0 0 0-2.45.88 2.22 2.22 0 0 0-.66 1.97q.24 2.52 3.6 2.2 3.36-.33 3.12-2.84a2.24 2.24 0 0 0-1.04-1.82 4.16 4.16 0 0 0-2.57-.4zM1275 445.21l-6.45.63a3.72 3.72 0 0 1-1.98-.3 3.23 3.23 0 0 1-1.4-1.3 5.11 5.11 0 0 1-.66-2.17 4.23 4.23 0 0 1 .7-3.07 3.5 3.5 0 0 1 2.58-1.33l6.4-.62.21 2.1-6.09.6a2.56 2.56 0 0 0-1.64.62 1.94 1.94 0 0 0-.39 1.58 1.89 1.89 0 0 0 .69 1.45 2.57 2.57 0 0 0 1.74.3l6.08-.59zM1265.64 452.34l-.44-4.53 1.2-.11.68 1.15 6.43-.62.44-1.27 1.2-.11.44 4.52-1.2.12-.67-1.16-6.44.63-.44 1.26zM1274.55 457.45a2.16 2.16 0 0 0-1.07-1.75 4.18 4.18 0 0 0-2.56-.41q-3.32.32-3.08 2.82a7.9 7.9 0 0 0 .77 2.48l-1.77.18a7.09 7.09 0 0 1-.78-2.69 4.2 4.2 0 0 1 1-3.45 5.6 5.6 0 0 1 3.67-1.51 6.2 6.2 0 0 1 2.77.3 4.1 4.1 0 0 1 1.95 1.44 4.83 4.83 0 0 1 .86 2.42 6.74 6.74 0 0 1-.42 2.98l-1.78-.51a11.25 11.25 0 0 0 .35-1.17 3.35 3.35 0 0 0 .1-1.13zM1267.45 470.92l-.23-2.4 3.94-3-.73-.84-3.55.35-.2-2.11 9.94-.97.2 2.11-4.55.44 1.25.72 3.65 2.36.23 2.35-4.74-3.05zM882.57 1392.95l-2.38-.72-2.03 3.03 1.58 1.93-1.27 1.9-6.38-8.52 1.44-2.15 10.31 2.64zm-4.14-1.28l-3.67-1.1q-.42-.13-.65-.22.6.67 2.87 3.48zM886.42 1387.2l-1.18 1.77-6.84-4.58-1.51 2.26-1.47-.98 4.2-6.28 1.47.98-1.51 2.26zM886.77 1379.78l3.19 2.13-1.18 1.76-8.3-5.56 1.62-2.42a4.99 4.99 0 0 1 2.29-2.09 2.95 2.95 0 0 1 3.45 1.72 3.2 3.2 0 0 1 .13 1.74l5.25-.02-1.3 1.95-4.52-.15zm-1.43-.96l.38-.57a2.62 2.62 0 0 0 .55-1.42 1.2 1.2 0 0 0-.61-.98 1.1 1.1 0 0 0-1.11-.16 2.98 2.98 0 0 0-1.1 1.1l-.35.53zM897.12 1371.2l-3.2 4.8-8.3-5.57 3.2-4.78 1.44.96-2.02 3.03 1.82 1.22 1.88-2.81 1.45.96-1.89 2.81 2.15 1.44 2.02-3.03zM900.36 1366.37l-2.53 3.77-1-.66.21-1.33-5.37-3.6-1.14.7-1-.66 2.53-3.78 1 .67-.21 1.32 5.37 3.6 1.14-.7zM1309.79 1077.17l3.05-.56a5.98 5.98 0 0 1 3.15.03 2.1 2.1 0 0 1 1.3 1.72 2.42 2.42 0 0 1-.16 1.52 1.68 1.68 0 0 1-.97.89l.01.06a2.2 2.2 0 0 1 1.5.54 2.58 2.58 0 0 1 .69 1.44 2.54 2.54 0 0 1-.59 2.28 4.27 4.27 0 0 1-2.5 1.23l-3.68.68zm2.8 3.5l1.2-.21a2.26 2.26 0 0 0 1.18-.5 1 1 0 0 0 .22-.93.88.88 0 0 0-.56-.73 2.69 2.69 0 0 0-1.35 0l-1.1.2zm.3 1.66l.47 2.56 1.36-.24a2.05 2.05 0 0 0 1.2-.57 1.24 1.24 0 0 0 .23-1.08q-.22-1.22-1.97-.9zM1327.04 1074l1.17 6.36a3.73 3.73 0 0 1-.14 2 3.22 3.22 0 0 1-1.18 1.51 5.12 5.12 0 0 1-2.1.84 4.24 4.24 0 0 1-3.12-.43 3.5 3.5 0 0 1-1.54-2.46l-1.16-6.34 2.08-.38 1.1 6.02a2.56 2.56 0 0 0 .77 1.58 1.93 1.93 0 0 0 1.6.25 1.89 1.89 0 0 0 1.39-.8 2.58 2.58 0 0 0 .15-1.77l-1.1-6zM1333.3 1083l-2.05.39-1.8-9.83 5.63-1.04.31 1.7-3.58.67.46 2.53 3.34-.61.31 1.7-3.33.61zM1340.86 1081.62l-2.05.38-1.81-9.83 5.63-1.04.32 1.71-3.58.66.46 2.53 3.34-.61.3 1.7-3.33.61zM1348.36 1074.26l1.3-4.42 2.25-.41-2.15 6.6.7 3.83-2.07.38-.7-3.76-4.37-5.47 2.26-.42zM1283.74 1028.95l-1.7-9.84 2.09-.36 1.4 8.12 4-.7.3 1.73zM1297.2 1026.63l-5.66.98-1.7-9.85 5.67-.98.3 1.7-3.6.63.38 2.16 3.34-.58.3 1.71-3.34.58.44 2.54 3.58-.62zM1307.22 1024.9l-2.38.4-2.93-3.32-1.65 4.12-2.24.38 2.4-5.64-3.89-4.24 2.3-.4 2.74 3.18 1.47-3.9 2.25-.4-2.25 5.42zM1316.53 1023.28l-2.08.36-.73-4.25-3.9.68.73 4.25-2.09.36-1.7-9.85 2.09-.36.67 3.86 3.9-.67-.67-3.86 2.08-.36zM1325.05 1021.81l-1.12-2.22-3.6.62-.3 2.47-2.25.39 1.77-10.5 2.55-.43 5.2 9.28zm-1.92-3.88l-1.74-3.41-.3-.63q-.07.9-.53 4.48zM1337.27 1019.7l-2.65.46-5.57-6.71h-.06q.47 1.96.61 2.8l.8 4.64-1.86.32-1.7-9.85 2.63-.46 5.55 6.64h.05q-.43-1.9-.57-2.7l-.8-4.66 1.87-.33zM1347.06 1012.84a4.91 4.91 0 0 1-.74 3.96 5.73 5.73 0 0 1-3.78 1.99l-2.79.48-1.7-9.85 3.1-.53a5.28 5.28 0 0 1 3.96.62 4.75 4.75 0 0 1 1.95 3.33zm-2.16.43q-.55-3.18-3.35-2.7l-1.12.2 1.11 6.41.9-.15q3.02-.52 2.46-3.76zM1351.4 1013.36l.65 3.78-2.09.36-1.7-9.84 2.87-.5a4.99 4.99 0 0 1 3.1.22 2.96 2.96 0 0 1 1.13 3.68 3.2 3.2 0 0 1-1.17 1.3l3.64 3.78-2.32.4-3-3.37zm-.3-1.7l.68-.11a2.63 2.63 0 0 0 1.4-.58 1.2 1.2 0 0 0 .3-1.12 1.1 1.1 0 0 0-.66-.92 2.96 2.96 0 0 0-1.54-.03l-.63.1zM1362.76 1015.3l-4.48.77-.2-1.19 1.1-.76-1.1-6.37-1.3-.35-.2-1.18 4.47-.78.2 1.19-1.1.76 1.1 6.37 1.3.35zM1370.47 1013.96l-1.12-2.22-3.6.62-.3 2.47-2.25.39 1.77-10.5 2.55-.44 5.2 9.29zm-1.92-3.89l-1.74-3.4a9.88 9.88 0 0 1-.3-.64q-.07.9-.53 4.49zM491.32 1315.24l-.5-2.65 6.63-5.67-.01-.06q-1.95.5-2.79.65l-4.62.88-.35-1.86 9.82-1.86.5 2.63-6.56 5.65.01.05q1.9-.46 2.7-.61l4.64-.88.35 1.88zM498.4 1325.7a5.42 5.42 0 0 1-3.98-.5 5.33 5.33 0 0 1-1.31-6.94 5.44 5.44 0 0 1 3.53-1.92 5.37 5.37 0 0 1 3.98.5 4.62 4.62 0 0 1 1.95 3.24 4.55 4.55 0 0 1-.65 3.71 5.44 5.44 0 0 1-3.53 1.9zm-1.36-7.17a4.17 4.17 0 0 0-2.36 1.1 2.22 2.22 0 0 0-.48 2.01q.47 2.5 3.78 1.87 3.32-.62 2.85-3.1a2.24 2.24 0 0 0-1.19-1.72 4.16 4.16 0 0 0-2.6-.16zM504.72 1332.34l.4 2.1-10.46-1.48-.43-2.27 9.2-5.18.4 2.1-5.5 2.95q-.49.25-1.15.54t-.92.39a17.63 17.63 0 0 1 2.26.1zM496.6 1343.28l2.21-1.16-.67-3.58-2.48-.27-.42-2.24 10.52 1.6.48 2.55-9.21 5.34zm3.86-1.98l3.39-1.8q.39-.2.62-.3-.9-.05-4.49-.46zM1347.6 280.37l-1.98-.63 3-9.53 5.46 1.72-.52 1.66-3.48-1.1-.77 2.46 3.23 1.02-.52 1.65-3.23-1.02zM1352.94 282.05l3-9.53 2.03.63-2.48 7.87 3.87 1.21-.53 1.67zM1366.32 286.26l.03-2.48-3.48-1.1-1.4 2.05-2.18-.68 6.38-8.52 2.47.78.36 10.64zm.08-4.33l.02-3.83q0-.44.03-.7-.48.77-2.54 3.75zM1377.37 289.74l-2.3-.72-1.23-4.8-1.04.34-1.08 3.4-2.02-.63 3-9.54 2.02.64-1.37 4.36 1.15-.87 3.6-2.43 2.25.7-4.66 3.18zM1384.06 291.85l-5.49-1.73 3-9.54 5.5 1.73-.53 1.66-3.47-1.1-.66 2.1 3.23 1.02-.52 1.65-3.23-1.01-.77 2.45 3.47 1.1zM1027.14 175.07l7.7-2.8v-.06q-2.38.25-3.18.3l-4.64.23-.1-1.9 9.98-.5.15 2.88-7.51 2.75v.04l7.76 2.12.15 2.88-9.98.5-.1-1.96 4.72-.25.77-.03q.43-.02 2.33-.02v-.06l-7.95-2.18zM1038 191.64l-6.46.33a3.73 3.73 0 0 1-1.97-.4 3.22 3.22 0 0 1-1.35-1.36 5.13 5.13 0 0 1-.55-2.19 4.24 4.24 0 0 1 .83-3.04 3.5 3.5 0 0 1 2.65-1.2l6.43-.33.1 2.11-6.1.31a2.56 2.56 0 0 0-1.68.55 1.94 1.94 0 0 0-.46 1.57 1.89 1.89 0 0 0 .62 1.48 2.58 2.58 0 0 0 1.73.38l6.1-.32zM1031.21 200.35a2.58 2.58 0 0 1-2.18-.86 4.23 4.23 0 0 1-.91-2.67 6.36 6.36 0 0 1 .45-2.86l1.97-.1a11.67 11.67 0 0 0-.55 1.74 5.05 5.05 0 0 0-.12 1.3 1.82 1.82 0 0 0 .32 1.05.91.91 0 0 0 .81.33.88.88 0 0 0 .52-.2 1.82 1.82 0 0 0 .41-.5 12.4 12.4 0 0 0 .61-1.32 6.17 6.17 0 0 1 .76-1.42 3.1 3.1 0 0 1 .88-.78 2.63 2.63 0 0 1 1.22-.33 2.58 2.58 0 0 1 2.13.79 3.74 3.74 0 0 1 .88 2.44 5.86 5.86 0 0 1-.1 1.5 10.17 10.17 0 0 1-.45 1.5l-1.68-.6a9.92 9.92 0 0 0 .39-1.34 4.26 4.26 0 0 0 .08-1.04 1.36 1.36 0 0 0-.33-.9.92.92 0 0 0-.75-.29.91.91 0 0 0-.48.16 1.43 1.43 0 0 0-.38.43 12.82 12.82 0 0 0-.63 1.38 5.36 5.36 0 0 1-1.25 1.99 2.62 2.62 0 0 1-1.62.6zM1028.73 206.15l-.1-2.12 8.21-.42-.14-2.7 1.76-.1.39 7.54-1.76.1-.14-2.72zM1181.5 601.95l-2.06.26-1.24-9.92 5.68-.71.22 1.72-3.62.45.32 2.56 3.36-.42.22 1.72-3.37.42zM1190.77 600.79l-4.51.56-.15-1.2 1.14-.7-.8-6.41-1.28-.41-.15-1.2 4.51-.56.15 1.2-1.14.7.8 6.42 1.28.4zM1198.93 599.77l-7.38.92-.17-1.36 3.9-7.41-4.62.58-.22-1.74 7.12-.89.17 1.36-3.9 7.41 4.88-.6zM1206.97 598.77l-7.38.92-.17-1.36 3.9-7.42-4.62.58-.22-1.73 7.13-.9.17 1.36-3.9 7.42 4.88-.61zM145.37 1300.93l-2.02-.64 2.47-7.85-2.59-.81.54-1.69 7.2 2.27-.54 1.69-2.59-.82zM159.45 1300.12a5.42 5.42 0 0 1-2.32 3.26 5.33 5.33 0 0 1-6.73-2.12 5.45 5.45 0 0 1-.02-4.02 5.37 5.37 0 0 1 2.32-3.26 4.62 4.62 0 0 1 3.77-.2 4.55 4.55 0 0 1 2.97 2.33 5.43 5.43 0 0 1 .01 4zm-6.95-2.2a4.17 4.17 0 0 0-.16 2.6 2.22 2.22 0 0 0 1.56 1.38q2.42.76 3.43-2.45 1.02-3.22-1.39-3.98a2.24 2.24 0 0 0-2.07.24 4.15 4.15 0 0 0-1.37 2.21zM163.1 1302.5l-1.16 3.66-2.02-.64 3-9.53 2.78.87a4.98 4.98 0 0 1 2.66 1.62 2.96 2.96 0 0 1-.68 3.79 3.2 3.2 0 0 1-1.64.61l1.5 5.04-2.25-.7-1.12-4.38zm.51-1.64l.65.2a2.6 2.6 0 0 0 1.52.13 1.2 1.2 0 0 0 .77-.86 1.1 1.1 0 0 0-.16-1.11 2.96 2.96 0 0 0-1.35-.75l-.62-.19z"/><path class="cls-19" d="M174.57 1310.14l.02-2.49-3.47-1.1-1.4 2.06-2.19-.7 6.39-8.5 2.47.78.36 10.64zm.08-4.34q0-3.38.02-3.82c0-.3.01-.53.03-.7q-.48.77-2.54 3.74z"/></g></g></g></g></g></svg>
