<svg xmlns="http://www.w3.org/2000/svg" viewBox="0 0 9500 9500">
  <path fill="none" d="M0 0h9500v9500H0z"/>
  <path d="M2945.01 1262.1l-81.03-239.75H2644.2l-85.47 239.75h83.25v21.09h-169.83v-21.09h52.17l283.05-762.56h91.03l279.72 762.56h51.06v21.09H2866.2v-21.09h78.81zm-186.47-555L2654.2 997.93h200.91l-96.57-290.83zM3553.2 1082.29l193.14-555h-86.58V506.2h169.83v21.09h-52.17l-267.5 767h-93.25l-283.05-767h-51.06V506.2h362.97v21.09h-78.81l186.48 555zM4149.19 1262.1l-81.03-239.75h-219.78l-85.47 239.75h83.25v21.09h-169.83v-21.09h52.17l283.05-762.56h91.03l279.72 762.56h51.06v21.09h-362.98v-21.09h78.81zm-186.47-555l-104.34 290.83h200.91l-96.57-290.83zM4463.2 506.19h399.59v24.42h-117.66v728.16h39.95c62.91 0 113.03-19.23 150.41-57.72 37.38-38.47 75.3-97.67 113.78-177.59h23.31l-21.09 259.73h-588.3v-24.42h65.48V530.61h-65.48v-24.42zM5504.29 1294.29c-123.59 0-215.91-33.48-276.95-100.45s-91.56-163.91-91.56-290.81 32.73-226.81 98.23-299.7C5299.49 530.45 5392.18 494 5512.06 494s210.34 34.59 271.39 103.78 91.58 167.42 91.58 294.7-30.91 226.08-92.69 296.38-154.47 105.43-278.05 105.43zm142.08-354.08v-82.14c0-135.42-6.67-220.89-19.98-256.42-14.8-40.69-35.89-65.84-63.27-75.47-15.55-5.92-34.42-8.89-56.61-8.89-22.2 0-41.27 2.97-57.17 8.89s-29.05 16.28-39.41 31.08c-10.36 14.81-18.69 30.34-24.97 46.62-6.3 16.28-11.3 39.22-14.98 68.81-4.44 42.92-6.66 106.19-6.66 189.81v79.92c0 90.28 3.52 154.48 10.55 192.59s15.72 65.3 26.08 81.58c22.94 36.27 58.45 54.39 106.56 54.39 58.45 0 96.38-24.59 113.77-73.81s26.09-134.87 26.09-256.96zM6575.31 527.29v755.91H6419.9l-380.73-718.17v697.08h61.05v21.09h-152.06v-21.09h61.05V527.29h-61.05V506.2h306.36l290.83 557.22V527.29h-61.06V506.2h152.08v21.09h-61.06z"/>
  <g>
    <path d="M513.08 1914.94l145.95 77.44-4.73 8.92-42.97-22.8-141.11 265.95 14.6 7.74c22.97 12.19 45.01 14.88 66.12 8.06 21.1-6.81 46.43-21.09 75.97-42.82l8.51 4.52-58.04 90.78-214.87-114.01 4.73-8.92 23.92 12.69 141.11-265.95-23.92-12.69 4.73-8.91zM754.71 2043.14L965.53 2155l-38.54 82.42-7.3-3.87c3.13-33.32 1.17-58.35-5.88-75.08-7.06-16.73-22.61-31.48-46.67-44.24l-14.19-7.53-66.47 125.27 13.78 7.31c12.7 6.74 25.92 7.61 39.66 2.6 13.74-5 26.67-14.69 38.79-29.04l6.08 3.23-63.67 120-6.89-3.66c5.89-22.85 7-40.79 3.35-53.81-3.66-13.02-12.65-23.34-26.97-30.93l-9.73-5.16-69.05 130.14 15.41 8.17c24.86 13.19 49.96 16.98 75.28 11.37 25.32-5.61 47.39-18.32 66.21-38.13l8.11 4.3-50.14 86.66-222.57-118.09 4.73-8.92 23.92 12.69 141.11-265.95-23.92-12.69 4.74-8.92zM1221.34 2290.73l108.25 57.43-4.09 7.7-22.3-11.83-142.4 268.39 22.3 11.83-4.09 7.7-123.65-65.61 4.09-7.7 22.3 11.83 134.44-253.39-1.62-.86-199.34 228.82-50.68-26.89 67.82-300.16-1.62-.86-135.09 254.6 22.3 11.83-4.09 7.7-55.14-29.25 4.09-7.7 22.3 11.83 142.4-268.39-22.3-11.83 4.09-7.7 109.46 58.08-56.86 237.4 159.43-182.97zM1327.27 2673.21c1.49 17.76 13.31 32.52 35.48 44.28 22.16 11.76 42.84 13.9 62.05 6.43 19.2-7.48 36.26-25.26 51.18-53.38l97.23-183.25-26.35-13.98 4.09-7.7 59.19 31.41-4.09 7.7-22.3-11.83-95.72 180.41c-17.78 33.52-38.49 54.57-62.09 63.17-23.62 8.6-54.27 2.9-91.98-17.11-37.7-20-62.33-43.11-73.88-69.33-11.55-26.21-7.21-58.38 13.01-96.49l93.36-175.95-22.3-11.83 4.09-7.7 127.71 67.76-4.09 7.7-26.35-13.98-100.67 189.74c-13.2 24.86-19.05 46.17-17.57 63.93zM1675.17 2711.28l-21.49-11.4-72.06 135.81 26.35 13.98-4.09 7.7-131.76-69.91 4.09-7.7 26.35 13.98 142.4-268.39-26.35-13.98 4.09-7.7 122.44 64.96c35.13 18.64 59.1 33.69 71.9 45.16 12.79 11.46 20.8 21.34 24.02 29.63 7.38 17.42 4.97 37.63-7.21 60.6-12.19 22.98-26.58 36.38-43.16 40.22-16.59 3.85-37.01.55-61.25-9.9l-.65 1.22c20.31 14.59 32.14 29.18 35.49 43.77 3.34 14.59-1.22 33.64-13.7 57.16l-11.4 21.49c-7.46 14.06-11.74 23.91-12.83 29.56-1.1 5.65.79 9.77 5.66 12.35s9.9 2.4 15.1-.56c5.2-2.95 12.82-10.94 22.85-23.98l6.46 4.47c-15.17 21.4-28.54 34.04-40.13 37.94-11.59 3.89-28.47-.04-50.63-11.8-22.17-11.76-35.15-25.31-38.95-40.67-3.81-15.35 1.89-37.35 17.1-66l15.7-29.6c8.03-15.13 11.94-27.25 11.76-36.36-.19-9.1-5.56-16.45-16.1-22.05zm48.85-143.97l-66.25 124.87 12.97 6.88c15.41 8.17 29.33 9.5 41.79 3.99 12.45-5.52 24.34-18.95 35.67-40.3l6.24-11.76c11.33-21.35 15.24-37.38 11.73-48.07-3.51-10.69-13.1-20.2-28.77-28.51l-13.38-7.1zM1917.03 2659.84l123.65 65.61-4.09 7.7-22.3-11.83-142.4 268.39 22.3 11.83-4.09 7.7-123.65-65.61 4.09-7.7 22.3 11.83 142.4-268.39-22.3-11.83 4.09-7.7zM2079.47 3099.84l16.87-103.27-80.27-42.59-77.68 71.01 30.41 16.13-4.09 7.7-62.03-32.91 4.09-7.7 19.05 10.11 251.16-223.67 33.24 17.64-45.61 332.73 18.65 9.9-4.09 7.7-132.57-70.34 4.09-7.7 28.78 15.26zm39.44-238.84l-94.47 86 73.38 38.93 21.09-124.93z"/>
  </g>
  <g>
    <path d="M7175.82 2850.87c-25.34-65.58-26.51-121.42-3.49-167.55 23.01-46.13 68.19-82.2 135.54-108.23 67.34-26.02 127.06-29.13 179.17-9.33 52.1 19.81 90.45 61.51 115.03 125.12s24.77 118.71.58 165.29c-24.2 46.59-70.07 82.93-137.6 109.02-67.54 26.1-126.3 29.96-176.27 11.59-49.96-18.36-87.62-60.33-112.96-125.91zm217.03 2.79l43.59-16.84c71.86-27.77 115.85-48.83 131.96-63.18 18.55-16.2 27.58-32.55 27.08-49.05-.05-9.46-2.34-20.08-6.9-31.86-4.55-11.78-10.03-21.29-16.43-28.51-6.41-7.23-14.6-12.08-24.57-14.54-9.99-2.47-19.94-3.7-29.86-3.69-9.93 0-23.13 2.05-39.59 6.16-23.69 6.45-57.72 18.24-102.08 35.39l-42.41 16.39c-47.91 18.51-81.25 33.54-100.03 45.09-18.79 11.54-31.44 21.73-37.94 30.57-14.54 19.6-16.88 42.17-7.01 67.7 11.98 31.01 32.81 46.1 62.5 45.24 29.66-.89 76.9-13.83 141.69-38.87zM7682.78 2918.97l66.92 173.17c22.91 59.29 31.44 106.76 25.59 142.43-5.85 35.65-30.77 61.99-74.75 78.98-48.69 18.82-89.09 14.12-121.2-14.09-29.63-26.46-55.91-69.34-78.82-128.63l-1.82-4.71-157.85 61 28.45 73.63-11.19 4.32-87.63-226.77 11.19-4.32 14.79 38.29 389.92-150.68-14.79-38.29 11.19-4.33zm47.99 157.46l-220.88 85.36 4.78 12.37c9.1 23.56 23.44 36.74 43.04 39.55 19.58 2.81 47.44-2.76 83.57-16.73l28.27-10.93c33.37-12.9 55.11-26.15 65.2-39.75 10.08-13.61 10.81-31.59 2.16-53.98l-6.14-15.89zM7828.45 3295.92l71.02 183.77-11.19 4.32-13.2-34.16-182.59 70.56 45.3 117.21 182.59-70.56-13.43-34.75 11.19-4.32 71.24 184.36-11.19 4.32-13.43-34.75-389.92 150.68 13.43 34.75-11.19 4.32-71.24-184.36 11.19-4.32 13.43 34.75 192.01-74.2-45.29-117.21-192.01 74.2 13.2 34.16-11.19 4.32-71.02-183.77 11.19-4.32 13.43 34.75L7830.69 3335l-13.43-34.75 11.19-4.33zM7999.84 3739.43l69.42 179.64-11.19 4.32-12.52-32.39-389.92 150.68 12.52 32.39-11.19 4.32-69.42-179.64 11.19-4.32 12.52 32.39 389.92-150.68-12.52-32.39 11.19-4.32zM7945.82 4205.75l-12.06-31.22-197.31 76.25 14.79 38.28-11.19 4.32-73.97-191.42 11.19-4.32 14.79 38.28 389.92-150.68-14.79-38.28 11.19-4.32 68.74 177.88c19.72 51.04 31.07 88.29 34.04 111.74 2.97 23.45 2.38 40.93-1.73 52.46-8.03 24.77-28.74 43.6-62.11 56.5-33.38 12.9-60.42 13.87-81.12 2.92-20.71-10.95-38.96-32.78-54.76-65.49l-1.77.68c7.96 33.48 7.11 59.3-2.55 77.48-9.68 18.18-31.59 33.87-65.75 47.07l-31.22 12.06c-20.42 7.89-33.75 14.28-39.98 19.17-6.24 4.88-7.99 10.87-5.25 17.94 2.73 7.07 8.13 11.41 16.21 13.03 8.07 1.62 23.19.18 45.37-4.33l2.69 10.47c-35.05 8.57-60.35 9.67-75.91 3.27-15.56-6.4-29.56-25.7-42-57.89-12.44-32.2-13.73-57.99-3.84-77.38 9.88-19.39 35.63-37.12 77.26-53.21l43-16.62c21.99-8.5 36.98-17.57 45-27.2 7.98-9.65 9.03-22.13 3.12-37.44zm180.54-105.65l-181.41 70.11 7.28 18.85c8.65 22.38 21.92 36.31 39.85 41.8 17.91 5.49 42.38 2.24 73.41-9.75l17.08-6.6c31.01-11.99 49.53-25.12 55.52-39.39 5.99-14.28 4.58-32.81-4.21-55.57l-7.52-19.45z"/>
  </g>
  <g>
    <path d="M1501.91 3761.46l347.27 60.83-3.7 21.15-64.56-11.31-60.44 345.04 221.5 38.8 60.44-345.04-65.67-11.5 3.7-21.15 348.38 61.03-3.7 21.15-65.67-11.5-129.07 736.84 65.67 11.5-3.7 21.15-348.38-61.03 3.7-21.15 65.67 11.5 63.56-362.85-221.5-38.8-63.56 362.85 64.56 11.31-3.7 21.15-347.27-60.83 3.7-21.15 65.67 11.5 129.07-736.84-65.67-11.5 3.7-21.15zM2660.01 4745.58l-39.13-254.65-220.38-38.6-127.82 225.4 83.48 14.62-3.7 21.15-170.3-29.83 3.7-21.15 52.31 9.16 417.78-714.95 91.27 15.99 146.53 813.8 51.21 8.97-3.7 21.15-363.96-63.75 3.7-21.15 79.01 13.84zm-89.51-589.29l-155.71 273.29 201.46 35.29-45.75-308.58zM3812.98 4554.05c-26.78 152.86-88.48 251.81-185.07 296.83-89.15 41.74-203.1 50.46-341.86 26.16l-314.99-55.18 3.7-21.15 73.46 12.87 129.07-736.84-73.46-12.87 3.71-21.15 343.93 60.25c142.46 24.95 244.21 72.81 305.24 143.52 61.03 70.73 79.79 173.26 56.27 307.56zm-547.71 297.55l42.29 7.41c74.95 13.13 133.2-4 174.79-51.41 41.57-47.4 73.28-133.44 95.12-258.1l11.31-64.55c29.25-166.96 14.94-273.1-42.89-318.41-27.57-21.64-69.17-37.35-124.82-47.1l-26.72-4.68-129.08 736.84zM3947.64 4189.88l578.78 101.38-27.48 222.33-20.02-3.51c-18.05-80.4-41.7-137.51-70.96-171.31-29.26-33.81-76.91-56.49-142.95-68.06l-38.95-6.82-60.25 343.93 37.85 6.63c34.88 6.11 66.48-1.92 94.85-24.11 28.35-22.19 51.25-54.7 68.72-97.53l16.68 2.92-57.71 329.47-18.92-3.31c-3.61-57.99-14.66-100.84-33.13-128.55-18.46-27.71-47.36-45.02-86.69-51.91l-26.72-4.68-62.59 357.29 42.29 7.41c68.27 11.96 129.9 1.74 184.91-30.7s97.01-78.99 126.01-139.7l22.25 3.9-51.42 241.09L3811.14 4969l4.29-24.49 65.67 11.5 127.9-730.16-65.67-11.5 4.31-24.47zM4834.88 5135.72c37.09 6.5 71.69 2.25 103.76-12.79 32.08-15.04 51.67-42.76 58.75-83.2s-2.89-74.13-29.92-101.04-67.53-53.31-121.5-79.21c-53.97-25.89-92.72-47.01-116.23-63.38-23.53-16.35-45.1-36.2-64.71-59.53-39.26-46.63-51.79-110.39-37.62-191.28 11.57-66.04 45.06-118.68 100.5-157.92s123.97-51.71 205.6-37.41c39.32 6.89 79.32 19.83 119.96 38.8 40.65 18.99 66.17 29.37 76.56 31.19 10.39 1.82 20.97-3.97 31.72-17.38l12.25 2.15-31.6 226.21-17.81-3.12c-24.31-70.79-52.53-129.08-84.66-174.87-32.15-45.78-71.03-72.67-116.66-80.67-45.63-7.99-82.91-3.63-111.84 13.1-28.94 16.73-46.49 42.73-52.67 77.97-6.17 35.25 4.1 64.96 30.85 89.14 26.73 24.19 60.95 46.05 102.66 65.59 41.69 19.55 69.01 32.74 81.96 39.59 12.95 6.87 28.94 15.98 47.99 27.35s34.3 22.46 45.79 33.26c11.5 10.8 23.34 23.96 35.53 39.49 12.19 15.52 21.02 31.79 26.45 48.79 13.8 39.14 16.41 83.19 7.83 132.16-14.04 80.14-50.37 140.11-108.96 179.94s-128.71 52.6-210.34 38.3c-42.29-7.41-89.74-21.46-142.33-42.13-52.6-20.68-81.85-31.55-87.77-32.59-10.4-1.82-22.37 7.55-35.91 28.12l-15.58-2.73 35.26-266.86 18.93 3.32c21.33 70.28 53.2 133.99 95.58 191.12 42.39 57.14 91.79 90.64 148.18 100.52z"/>
  </g>
  <g>
    <path d="M3244.18 6683.96l-58.38-8.44-53.34 369.02 71.6 10.35-3.02 20.92-358.01-51.75 3.02-20.92 71.62 10.35 105.4-729.23-71.62-10.35 3.02-20.92 332.68 48.09c95.46 13.8 162.49 28.56 201.08 44.25 38.59 15.7 64.95 31.68 79.09 47.96 31.1 33.73 42.15 81.82 33.13 144.24-9.02 62.43-30.91 104.81-65.61 127.16-34.71 22.36-84.01 31.52-147.91 27.53l-.48 3.31c58.31 16.69 97.25 40.31 116.83 70.88 19.56 30.57 24.74 77.79 15.5 141.67l-8.44 58.38c-5.52 38.2-7.23 64.19-5.09 78 2.12 13.81 9.8 21.66 23.02 23.57 13.21 1.91 24.55-2.62 34.02-13.63 9.45-11.01 20.3-35.49 32.55-73.46l18.41 4.9c-17.1 61.26-37.28 101.08-60.56 119.46-23.27 18.36-65.02 23.2-125.24 14.5s-100.96-29.02-122.21-60.95c-21.24-31.93-26.24-86.82-14.99-164.67l11.62-80.41c5.94-41.12 4.96-72-2.92-92.64-7.88-20.63-26.13-33.03-54.77-37.17zm-6.32-368.65l-49.04 339.27 35.24 5.09c41.85 6.05 74.74-2.32 98.65-25.1 23.91-22.78 40.06-63.17 48.45-121.19l4.62-31.95c8.38-58.01 4.19-97.78-12.56-119.32-16.75-21.54-46.43-35.4-89.02-41.55l-36.34-5.25zM4002.79 7202.95c-122.63-17.73-209.44-64.18-260.42-139.41s-67.36-175.8-49.15-301.74c18.2-125.94 65.02-220.37 140.48-283.32 75.44-62.95 172.65-85.83 291.61-68.63 118.97 17.2 203.78 64.5 254.44 141.92 50.67 77.42 66.87 179.28 48.61 305.6s-63.09 219.92-134.49 280.82c-71.43 60.9-168.45 82.48-291.08 64.76zm191.79-331.02l11.78-81.51c19.42-134.38 25.06-220.15 16.95-257.32-8.85-42.52-26.18-70.5-51.96-83.98-14.58-8.11-32.89-13.75-54.91-16.94-22.04-3.19-41.37-2.98-58.01.61s-31.16 11.99-43.55 25.2c-12.41 13.2-22.89 27.43-31.47 42.67-8.58 15.26-16.82 37.31-24.75 66.14-10.57 41.97-21.84 104.43-33.83 187.42l-11.46 79.32c-12.95 89.6-18.68 153.8-17.17 192.63 1.51 38.83 6.24 67.07 14.2 84.7 17.56 39.28 50.21 62.36 97.94 69.26 58.01 8.38 99.17-10.58 123.49-56.92 24.32-46.34 45.24-130.1 62.75-251.28zM4556.8 6484.59l335.98 48.56-3.02 20.92-60.59-8.76-50.31 348.09 9.13-.92 360.63-300.99-87.02-12.58 3.02-20.92 192.76 27.86-3.02 20.92-66.09-9.55-220.02 184.12 189.53 555.94 59.49 8.6-3.02 20.92-353.61-51.11 3.02-20.92 51.77 7.48-130.96-377.67-10.23.76-50.47 349.2 60.59 8.76-3.02 20.92-335.98-48.56 3.02-20.92 60.59 8.76 105.4-729.23-60.59-8.76 3.02-20.92zM5361.27 6600.87l572.81 82.79-20.52 219.7-19.83-2.87c-20.13-78.62-45.1-134.16-74.89-166.58-29.8-32.41-77.38-53.35-142.73-62.8l-38.55-5.57-49.2 340.37 37.45 5.41c34.52 4.99 65.39-3.84 92.67-26.52 27.26-22.68 48.84-55.35 64.77-98.04l16.53 2.39-47.13 326.06-18.73-2.71c-5.26-57-17.4-98.85-36.39-125.59-19-26.74-47.96-42.93-86.89-48.55l-26.43-3.82-51.11 353.61 41.86 6.05c67.55 9.76 127.93-2.13 181.14-35.67 53.21-33.55 93.18-80.62 119.94-141.23l22.04 3.19-43.53 238.87-604.75-87.41 3.5-24.23 65 9.39 104.45-722.62-65-9.39 3.52-24.23z"/>
  </g>
  <g>
    <path d="M2350.49 8269.62h314.77v19.61h-56.77v326.11l8.27-2.06 291.02-324.05h-81.53v-19.61h180.61v19.61h-61.92l-177.5 198.16 247.67 485.03h55.73v19.61h-331.28v-19.61h48.52l-170.28-329.2-9.3 2.06v327.14h56.77v19.61H2350.5v-19.61h56.77v-683.19h-56.77v-19.61zM3342.62 8917.73c21.67 33.72 60.72 50.56 117.14 50.56 56.41 0 99.75-17.53 130.03-52.62 30.27-35.09 45.41-88.41 45.41-159.97v-466.47h-67.08v-19.61h150.67v19.61h-56.77v459.25c0 85.31-18.92 148.95-56.77 190.92s-104.75 62.94-200.72 62.94-169.25-19.94-219.81-59.84-75.84-108.36-75.84-205.38v-447.89h-56.77v-19.61h325.08v19.61h-67.08v482.98c.01 63.3 10.84 111.8 32.51 145.52zM4344.04 8289.23v702.8h-144.47l-353.98-667.7v648.09h56.77v19.61h-141.39v-19.61h56.77v-683.19h-56.77v-19.61h284.83l270.39 518.06v-498.45h-56.77v-19.61h141.39v19.61h-56.77zM4448.15 8269.62h371.52v22.7h-109.39v677h37.16c58.47 0 105.08-17.88 139.83-53.66s70-90.81 105.78-165.12h21.67l-19.61 241.48h-546.95v-22.7h60.89v-677h-60.89v-22.7zM5332.97 8917.73c21.67 33.72 60.72 50.56 117.14 50.56 56.41 0 99.75-17.53 130.03-52.62 30.27-35.09 45.41-88.41 45.41-159.97v-466.47h-67.08v-19.61h150.67v19.61h-56.77v459.25c0 85.31-18.92 148.95-56.77 190.92s-104.75 62.94-200.72 62.94-169.25-19.94-219.81-59.84-75.84-108.36-75.84-205.38v-447.89h-56.77v-19.61h325.08v19.61h-67.08v482.98c.01 63.3 10.84 111.8 32.51 145.52zM6334.4 8289.23v702.8h-144.47l-353.98-667.7v648.09h56.77v19.61h-141.39v-19.61h56.77v-683.19h-56.77v-19.61h284.83l270.39 518.06v-498.45h-56.77v-19.61h141.39v19.61h-56.77z"/>
  </g>
</svg>